<?xml version="1.0" standalone="no"?>
<!DOCTYPE svg PUBLIC "-//W3C//DTD SVG 1.1//EN" "http://www.w3.org/Graphics/SVG/1.1/DTD/svg11.dtd" >
<svg xmlns="http://www.w3.org/2000/svg">
<metadata>Generated by IcoMoon</metadata>
<defs>
<font id="icomoon" horiz-adv-x="1024">
<font-face units-per-em="1024" ascent="960" descent="-64" />
<missing-glyph horiz-adv-x="1024" />
<glyph unicode="&#x20;" horiz-adv-x="512" d="" />
<glyph unicode="&#xe900;" glyph-name="chevron-thin-left" d="M711.219 80.998c13.722-13.926 13.722-36.301 0-50.125s-35.891-13.875-49.613 0l-400.896 404.89c-13.722 13.824-13.722 36.198 0 50.125l400.896 404.89c13.722 13.824 35.891 13.824 49.613 0 13.722-13.875 13.722-36.301 0-50.125l-365.619-379.853 365.619-379.802z" />
<glyph unicode="&#xe901;" glyph-name="chevron-thin-right" d="M678.4 460.8l-365.619 379.904c-13.722 13.824-13.722 36.198 0 50.125 13.722 13.824 35.891 13.824 49.613 0l400.896-404.89c13.722-13.875 13.722-36.301 0-50.125l-400.896-404.89c-13.722-13.875-35.891-13.824-49.613 0-13.722 13.773-13.722 36.198 0 50.125l365.619 379.75z" />
<glyph unicode="&#xe902;" glyph-name="left-arrow" d="M334.018 797.137c14.436 14.436 37.164 14.436 51.6 0 13.949-13.949 13.949-37.164 0-51.080l-261.641-261.641h863.38c20.126 0 36.643-15.997 36.643-36.123s-16.517-36.643-36.643-36.643h-863.38l261.641-261.153c13.949-14.436 13.949-37.684 0-51.6-14.436-14.436-37.164-14.436-51.6 0l-323.581 323.581c-13.949 13.949-13.949 37.164 0 51.080l323.581 323.581z" />
<glyph unicode="&#xe903;" glyph-name="arrow-thin-left" d="M195.994 512l310.835 310.835-72.397 72.397-434.432-434.432 434.432-434.432 72.397 72.397-310.835 310.835h828.006v102.4h-828.006z" />
<glyph unicode="&#xe904;" glyph-name="right-arrow" d="M689.853 788.615c-6.637 6.519-15.743 10.544-25.789 10.544s-19.152-4.024-25.794-10.549l0.005 0.005c-6.47-6.327-10.481-15.145-10.481-24.899s4.012-18.572 10.475-24.893l261.773-254.928h-863.448c-0.21 0.004-0.459 0.007-0.707 0.007-19.58 0-35.498-15.677-35.887-35.164l-0.001-0.036c0.333-19.806 16.466-35.734 36.32-35.734 0.115 0 0.231 0.001 0.346 0.002h863.376l-261.659-254.437c-6.47-6.418-10.476-15.312-10.476-25.142s4.005-18.724 10.473-25.14l0.002-0.002c6.637-6.519 15.743-10.544 25.789-10.544s19.152 4.024 25.794 10.549l-0.005-0.005 323.368 315.284c6.453 6.325 10.454 15.131 10.454 24.872s-4 18.548-10.448 24.867l-0.006 0.006z" />
<glyph unicode="&#xe905;" glyph-name="arrow-right" d="M782.857 397.307l-440.304-440.29c-28.009-28.022-73.42-28.022-101.415 0-27.997 27.997-27.997 73.406 0 101.401l389.601 389.589-389.589 389.576c-27.997 28.009-27.997 73.413 0 101.41 27.997 28.009 73.406 28.009 101.415 0l440.304-440.297c13.999-14.005 20.99-32.342 20.99-50.687 0-18.354-7.005-36.704-21.001-50.703z" />
<glyph unicode="&#xe906;" glyph-name="map-maker-p" d="M511.984 960c-207.854 0-376.975-169.121-376.975-376.996 0-54.222 11.098-105.991 32.969-153.883 94.254-206.25 274.966-424.007 328.118-485.827 3.982-4.622 9.788-7.283 15.898-7.283s11.915 2.662 15.898 7.283c53.132 61.809 233.843 279.556 328.129 485.827 21.882 47.892 32.969 99.662 32.969 153.883-0.021 207.875-169.142 376.996-377.006 376.996zM511.984 387.192c-107.972 0-195.823 87.851-195.823 195.823 0 107.983 87.851 195.834 195.823 195.834s195.823-87.851 195.823-195.834c0.010-107.972-87.841-195.823-195.823-195.823z" />
<glyph unicode="&#xe907;" glyph-name="segment" d="M384 384.667v84h512v-84h-512zM128 682.667h768v-86h-768v86zM384 170.667v86h512v-86h-512z" />
<glyph unicode="&#xe908;" glyph-name="search" d="M991.284 27.298l-243.714 253.474c62.663 74.491 96.997 168.216 96.997 265.788 0 227.967-185.473 413.44-413.44 413.44s-413.44-185.473-413.44-413.44 185.473-413.44 413.44-413.44c85.582 0 167.137 25.813 236.865 74.815l245.565-255.398c10.264-10.66 24.069-16.538 38.863-16.538 14.003 0 27.287 5.339 37.371 15.046 21.427 20.618 22.11 54.808 1.492 76.253zM431.128 852.146c168.504 0 305.586-137.082 305.586-305.586s-137.082-305.586-305.586-305.586-305.586 137.082-305.586 305.586 137.082 305.586 305.586 305.586z" />
<glyph unicode="&#xe909;" glyph-name="user-o" d="M508.289 408.24c1.060 0 2.121 0 3.393 0 0.424 0 0.848 0 1.272 0 0.636 0 1.484 0 2.121 0 62.131 1.060 112.388 22.902 149.497 64.676 81.64 92.031 68.069 249.797 66.584 264.853-5.301 113.024-58.738 167.097-102.845 192.331-32.868 18.873-71.25 29.051-114.084 29.899h-1.484c-0.212 0-0.636 0-0.848 0h-1.272c-23.538 0-69.765-3.817-114.084-29.051-44.531-25.234-98.816-79.308-104.118-193.18-1.484-15.056-15.056-172.823 66.584-264.853 36.897-41.774 87.153-63.616 149.285-64.676zM349.038 732.468c0 0.636 0.212 1.272 0.212 1.696 6.998 152.041 114.932 168.369 161.16 168.369h0.848c0.424 0 1.060 0 1.696 0 57.254-1.272 154.586-24.598 161.16-168.369 0-0.636 0-1.272 0.212-1.696 0.212-1.484 15.056-145.68-52.377-221.595-26.719-30.111-62.343-44.955-109.207-45.379-0.424 0-0.636 0-1.060 0v0c-0.424 0-0.636 0-1.060 0-46.651 0.424-82.488 15.268-108.995 45.379-67.221 75.491-52.801 220.322-52.589 221.595zM947.449 146.568c0 0.212 0 0.424 0 0.636 0 1.696-0.212 3.393-0.212 5.301-1.272 41.986-4.029 140.166-96.060 171.55-0.636 0.212-1.484 0.424-2.121 0.636-95.636 24.386-175.155 79.52-176.003 80.156-12.935 9.118-30.748 5.937-39.866-6.998s-5.937-30.748 6.998-39.866c3.605-2.545 88.002-61.283 193.604-88.426 49.408-17.6 54.922-70.401 56.406-118.749 0-1.908 0-3.605 0.212-5.301 0.212-19.085-1.060-48.56-4.453-65.524-34.352-19.509-169.006-86.941-373.848-86.941-203.994 0-339.496 67.645-374.060 87.153-3.393 16.964-4.877 46.439-4.453 65.524 0 1.696 0.212 3.393 0.212 5.301 1.484 48.348 6.998 101.149 56.406 118.749 105.602 27.143 189.999 86.093 193.604 88.426 12.935 9.118 16.116 26.931 6.998 39.866s-26.931 16.116-39.866 6.998c-0.848-0.636-79.944-55.77-176.003-80.156-0.848-0.212-1.484-0.424-2.121-0.636-92.031-31.596-94.787-129.776-96.060-171.55 0-1.908 0-3.605-0.212-5.301 0-0.212 0-0.424 0-0.636-0.212-11.027-0.424-67.645 10.815-96.060 2.121-5.513 5.937-10.179 11.027-13.359 6.362-4.241 158.827-101.361 413.926-101.361s407.564 97.332 413.926 101.361c4.877 3.181 8.906 7.846 11.027 13.359 10.603 28.203 10.391 84.821 10.179 95.848z" />
<glyph unicode="&#xe90a;" glyph-name="align-left" d="M725.333 554.667h-597.333c-23.552 0-42.667-19.115-42.667-42.667s19.115-42.667 42.667-42.667h597.333c23.552 0 42.667 19.115 42.667 42.667s-19.115 42.667-42.667 42.667zM896 725.334h-768c-23.552 0-42.667-19.115-42.667-42.667s19.115-42.667 42.667-42.667h768c23.552 0 42.667 19.115 42.667 42.667s-19.115 42.667-42.667 42.667zM896 384h-768c-23.552 0-42.667-19.115-42.667-42.667s19.115-42.667 42.667-42.667h768c23.552 0 42.667 19.115 42.667 42.667s-19.115 42.667-42.667 42.667zM725.333 213.334h-597.333c-23.552 0-42.667-19.115-42.667-42.667s19.115-42.667 42.667-42.667h597.333c23.552 0 42.667 19.115 42.667 42.667s-19.115 42.667-42.667 42.667z" />
<glyph unicode="&#xe90b;" glyph-name="segment1" d="M384 384.667v84h512v-84h-512zM128 682.667h768v-86h-768v86zM384 170.667v86h512v-86h-512z" />
<glyph unicode="&#xe90c;" glyph-name="menu1" d="M128 682.667h768v-86h-768v86zM128 384.667v84h768v-84h-768zM128 170.667v86h768v-86h-768z" />
<glyph unicode="&#xe90d;" glyph-name="align-right" d="M896 554.667h-597.333c-23.552 0-42.667-19.115-42.667-42.667s19.115-42.667 42.667-42.667h597.333c23.552 0 42.667 19.115 42.667 42.667s-19.115 42.667-42.667 42.667zM896 725.334h-768c-23.552 0-42.667-19.115-42.667-42.667s19.115-42.667 42.667-42.667h768c23.552 0 42.667 19.115 42.667 42.667s-19.115 42.667-42.667 42.667zM896 384h-768c-23.552 0-42.667-19.115-42.667-42.667s19.115-42.667 42.667-42.667h768c23.552 0 42.667 19.115 42.667 42.667s-19.115 42.667-42.667 42.667zM896 213.334h-597.333c-23.552 0-42.667-19.115-42.667-42.667s19.115-42.667 42.667-42.667h597.333c23.552 0 42.667 19.115 42.667 42.667s-19.115 42.667-42.667 42.667z" />
<glyph unicode="&#xe90e;" glyph-name="arrow-left" d="M220.146 448.008c0 18.345 7.005 36.695 20.983 50.687l440.308 440.297c28.009 28.009 73.42 28.009 101.417 0 27.997-27.997 27.997-73.399 0-101.41l-389.603-389.574 389.576-389.589c27.997-27.997 27.997-73.406 0-101.401-27.997-28.022-73.395-28.022-101.404 0l-440.31 440.29c-13.976 13.999-20.967 32.349-20.967 50.701z" />
<glyph unicode="&#xe90f;" glyph-name="arrow-left-o1" d="M311.568 448.027l462.455 462.455c11.374 11.374 11.374 29.614 0 40.988s-29.614 11.374-40.988 0l-483.056-483.056c-11.374-11.374-11.374-29.614 0-40.988l483.056-482.842c5.58-5.58 13.090-8.584 20.387-8.584s14.807 2.79 20.387 8.584c11.374 11.374 11.374 29.614 0 40.988l-462.24 462.455z" />
<glyph unicode="&#xe910;" glyph-name="arrow-right-o1" d="M774.115 468.413l-483.056 483.056c-11.374 11.374-29.614 11.374-40.988 0s-11.374-29.614 0-40.988l462.455-462.455-462.455-462.455c-11.374-11.374-11.374-29.614 0-40.988 5.58-5.58 13.090-8.584 20.387-8.584s14.807 2.79 20.387 8.584l483.056 483.056c11.374 11.159 11.374 29.614 0.215 40.773z" />
<glyph unicode="&#xe911;" glyph-name="arrow-right-o11" d="M774.115 468.413l-483.056 483.056c-11.374 11.374-29.614 11.374-40.988 0s-11.374-29.614 0-40.988l462.455-462.455-462.455-462.455c-11.374-11.374-11.374-29.614 0-40.988 5.58-5.58 13.090-8.584 20.387-8.584s14.807 2.79 20.387 8.584l483.056 483.056c11.374 11.159 11.374 29.614 0.215 40.773z" />
<glyph unicode="&#xe912;" glyph-name="arrow-left-o11" d="M311.568 448.027l462.455 462.455c11.374 11.374 11.374 29.614 0 40.988s-29.614 11.374-40.988 0l-483.056-483.056c-11.374-11.374-11.374-29.614 0-40.988l483.056-482.842c5.58-5.58 13.090-8.584 20.387-8.584s14.807 2.79 20.387 8.584c11.374 11.374 11.374 29.614 0 40.988l-462.24 462.455z" />
<glyph unicode="&#xe913;" glyph-name="balcony" d="M800 640c-8.848 0-16 7.152-16 16 0 149.984-122.016 272-272 272s-272-122.016-272-272c0-8.848-7.152-16-16-16s-16 7.152-16 16c0 167.632 136.368 304 304 304s304-136.368 304-304c0-8.848-7.152-16-16-16zM928 320h-832c-8.848 0-16 7.152-16 16s7.152 16 16 16h832c8.848 0 16-7.152 16-16s-7.152-16-16-16zM832-16h-639.984c-8.848 0-16 7.152-16 16s7.152 16 16 16h639.984c8.848 0 16-7.152 16-16s-7.152-16-16-16zM224.016-64c-26.464 0-48 21.536-48 48 0 8.848 7.152 16 16 16s16-7.152 16-16c0-8.832 7.168-16 16-16 8.848 0 16-7.152 16-16s-7.152-16-16-16zM192.016-32c-8.848 0-16 7.152-16 16v16c0 8.848 7.152 16 16 16s16-7.152 16-16v-16c0-8.848-7.152-16-16-16zM800-64c-8.848 0-16 7.152-16 16s7.152 16 16 16c8.832 0 16 7.168 16 16 0 8.848 7.152 16 16 16s16-7.152 16-16c0-26.464-21.536-48-48-48zM832-32c-8.848 0-16 7.152-16 16v16c0 8.848 7.152 16 16 16s16-7.152 16-16v-16c0-8.848-7.152-16-16-16zM800-64h-575.984c-8.848 0-16 7.152-16 16s7.152 16 16 16h575.984c8.848 0 16-7.152 16-16s-7.152-16-16-16zM224 320c-8.848 0-16 7.152-16 16v320c0 8.848 7.152 16 16 16s16-7.152 16-16v-320c0-8.848-7.152-16-16-16zM800 320c-8.848 0-16 7.152-16 16v320c0 8.848 7.152 16 16 16s16-7.152 16-16v-320c0-8.848-7.152-16-16-16zM512 720c-8.848 0-16 7.152-16 16v208c0 8.848 7.152 16 16 16s16-7.152 16-16v-208c0-8.848-7.152-16-16-16zM224 432c-8.848 0-16 7.152-16 16s7.152 16 16 16c149.984 0 272 122.016 272 272 0 8.848 7.152 16 16 16s16-7.152 16-16c0-167.632-136.368-304-304-304zM800 432c-167.632 0-304 136.368-304 304 0 8.848 7.152 16 16 16s16-7.152 16-16c0-149.984 122.016-272 272-272 8.848 0 16-7.152 16-16s-7.152-16-16-16zM704 320c-8.848 0-16 7.152-16 16v128.384c0 8.848 7.152 16 16 16s16-7.152 16-16v-128.384c0-8.848-7.152-16-16-16zM320 320c-8.848 0-16 7.152-16 16v128.384c0 8.848 7.152 16 16 16s16-7.152 16-16v-128.384c0-8.848-7.152-16-16-16zM192-16c-44.112 0-80 35.888-80 80 0 8.848 7.152 16 16 16s16-7.152 16-16c0-26.464 21.536-48 48-48 8.848 0 16-7.152 16-16s-7.152-16-16-16zM256-16c-44.112 0-80 35.888-80 80 0 8.848 7.152 16 16 16s16-7.152 16-16c0-26.464 21.536-48 48-48 8.848 0 16-7.152 16-16s-7.152-16-16-16zM320-16c-44.112 0-80 35.888-80 80 0 8.848 7.152 16 16 16s16-7.152 16-16c0-26.464 21.536-48 48-48 8.848 0 16-7.152 16-16s-7.152-16-16-16zM384-16c-44.112 0-80 35.888-80 80 0 8.848 7.152 16 16 16s16-7.152 16-16c0-26.464 21.536-48 48-48 8.848 0 16-7.152 16-16s-7.152-16-16-16zM448-16c-44.112 0-80 35.888-80 80 0 8.848 7.152 16 16 16s16-7.152 16-16c0-26.464 21.536-48 48-48 8.848 0 16-7.152 16-16s-7.152-16-16-16zM512-16c-44.112 0-80 35.888-80 80 0 8.848 7.152 16 16 16s16-7.152 16-16c0-26.464 21.536-48 48-48 8.848 0 16-7.152 16-16s-7.152-16-16-16zM768.032-16c-8.848 0-16 7.152-16 16s7.152 16 16 16c26.464 0 48 21.536 48 48 0 8.848 7.152 16 16 16s16-7.152 16-16c0-44.112-35.888-80-80-80zM704.032-16c-8.848 0-16 7.152-16 16s7.152 16 16 16c26.464 0 48 21.536 48 48 0 8.848 7.152 16 16 16s16-7.152 16-16c0-44.112-35.888-80-80-80zM640.032-16c-8.848 0-16 7.152-16 16s7.152 16 16 16c26.464 0 48 21.536 48 48 0 8.848 7.152 16 16 16s16-7.152 16-16c0-44.112-35.888-80-80-80zM576.032-16c-8.848 0-16 7.152-16 16s7.152 16 16 16c26.464 0 48 21.536 48 48 0 8.848 7.152 16 16 16s16-7.152 16-16c0-44.112-35.888-80-80-80zM512.032-16c-8.848 0-16 7.152-16 16s7.152 16 16 16c26.464 0 48 21.536 48 48 0 8.848 7.152 16 16 16s16-7.152 16-16c0-44.112-35.888-80-80-80zM128 48c-8.848 0-16 7.152-16 16v304.096c0 8.848 7.152 16 16 16s16-7.152 16-16v-304.096c0-8.848-7.152-16-16-16zM96 320.064c-26.464 0-48 21.536-48 48s21.536 48 48 48 48-21.536 48-48c0-8.848-7.152-16-16-16s-16 7.152-16 16c0 8.832-7.168 16-16 16s-16-7.168-16-16 7.168-16 16-16c8.848 0 16-7.152 16-16s-7.152-16-16-16zM832-16c-8.848 0-16 7.152-16 16s7.152 16 16 16c26.464 0 48 21.536 48 48 0 8.848 7.152 16 16 16s16-7.152 16-16c0-44.112-35.888-80-80-80zM896 48c-8.848 0-16 7.152-16 16v304.096c0 8.848 7.152 16 16 16s16-7.152 16-16v-304.096c0-8.848-7.152-16-16-16zM928 320.064c-8.848 0-16 7.152-16 16s7.152 16 16 16c8.832 0 16 7.168 16 16s-7.168 16-16 16-16-7.168-16-16c0-8.848-7.152-16-16-16s-16 7.152-16 16c0 26.464 21.536 48 48 48s48-21.536 48-48-21.536-48-48-48zM192 48c-8.848 0-16 7.152-16 16v272c0 8.848 7.152 16 16 16s16-7.152 16-16v-272c0-8.848-7.152-16-16-16zM256 48c-8.848 0-16 7.152-16 16v272c0 8.848 7.152 16 16 16s16-7.152 16-16v-272c0-8.848-7.152-16-16-16zM320 48c-8.848 0-16 7.152-16 16v272c0 8.848 7.152 16 16 16s16-7.152 16-16v-272c0-8.848-7.152-16-16-16zM384 48c-8.848 0-16 7.152-16 16v272.064c0 8.848 7.152 16 16 16s16-7.152 16-16v-272.064c0-8.848-7.152-16-16-16zM448 48c-8.848 0-16 7.152-16 16v272.064c0 8.848 7.152 16 16 16s16-7.152 16-16v-272.064c0-8.848-7.152-16-16-16zM512 48c-8.848 0-16 7.152-16 16v272.064c0 8.848 7.152 16 16 16s16-7.152 16-16v-272.064c0-8.848-7.152-16-16-16zM576 48c-8.848 0-16 7.152-16 16v272.064c0 8.848 7.152 16 16 16s16-7.152 16-16v-272.064c0-8.848-7.152-16-16-16zM640 48c-8.848 0-16 7.152-16 16v272.064c0 8.848 7.152 16 16 16s16-7.152 16-16v-272.064c0-8.848-7.152-16-16-16zM704 48c-8.848 0-16 7.152-16 16v272.064c0 8.848 7.152 16 16 16s16-7.152 16-16v-272.064c0-8.848-7.152-16-16-16zM768 48c-8.848 0-16 7.152-16 16v272.064c0 8.848 7.152 16 16 16s16-7.152 16-16v-272.064c0-8.848-7.152-16-16-16zM832 48c-8.848 0-16 7.152-16 16v272.064c0 8.848 7.152 16 16 16s16-7.152 16-16v-272.064c0-8.848-7.152-16-16-16z" />
<glyph unicode="&#xe914;" glyph-name="bathroom" d="M944 384h-32v400c0 79.529-64.471 144-144 144s-144-64.471-144-144v0-17.44c-45.638-7.972-79.903-47.25-80-94.55v-48.010c0-8.837 7.163-16 16-16v0h160c8.837 0 16 7.163 16 16v0 48c-0.097 47.31-34.362 86.588-79.424 94.476l-0.576 0.084v17.44c0 61.856 50.144 112 112 112s112-50.144 112-112v0-400h-520.96c5.586 9.131 8.912 20.172 8.96 31.987v0.013c-0.092 25.691-15.307 47.807-37.203 57.916l-0.397 0.164c3.514 6.331 5.587 13.882 5.6 21.916v0.004c-0.082 26.477-21.523 47.918-47.992 48h-128.008c-26.477-0.082-47.918-21.523-48-47.992v-0.008c0.013-8.038 2.086-15.589 5.72-22.156l-0.12 0.236c-22.293-10.273-37.508-32.389-37.6-58.068v-0.012c0.048-11.828 3.374-22.869 9.116-32.275l-0.156 0.275h-8.96c-26.51 0-48-21.49-48-48s21.49-48 48-48v0-96c0.127-79.478 64.522-143.873 143.988-144h0.012v-32c0-26.51 21.49-48 48-48s48 21.49 48 48v0 32h384v-32c0-26.51 21.49-48 48-48s48 21.49 48 48v0 32c79.478 0.127 143.873 64.522 144 143.988v96.012c26.51 0 48 21.49 48 48s-21.49 48-48 48v0zM704 672v-32h-128v32c0 35.346 28.654 64 64 64s64-28.654 64-64v0zM160 512h128c8.837 0 16-7.163 16-16s-7.163-16-16-16v0h-128c-8.837 0-16 7.163-16 16s7.163 16 16 16v0zM144 448h160c17.673 0 32-14.327 32-32s-14.327-32-32-32v0h-160c-17.673 0-32 14.327-32 32s14.327 32 32 32v0zM288 16c0-8.837-7.163-16-16-16s-16 7.163-16 16v0 32h32zM768 16c0-8.837-7.163-16-16-16s-16 7.163-16 16v0 32h32zM912 192c-0.073-61.827-50.174-111.927-111.993-112h-576.007c-61.827 0.073-111.927 50.174-112 111.993v96.007h800zM944 320h-864c-8.837 0-16 7.163-16 16s7.163 16 16 16v0h864c8.837 0 16-7.163 16-16s-7.163-16-16-16v0z" />
<glyph unicode="&#xe915;" glyph-name="search1" d="M991.284 27.298l-243.714 253.474c62.663 74.491 96.997 168.216 96.997 265.788 0 227.967-185.473 413.44-413.44 413.44s-413.44-185.473-413.44-413.44 185.473-413.44 413.44-413.44c85.582 0 167.137 25.813 236.865 74.815l245.565-255.398c10.264-10.66 24.069-16.538 38.863-16.538 14.003 0 27.287 5.339 37.371 15.046 21.427 20.618 22.11 54.808 1.492 76.253zM431.128 852.146c168.504 0 305.586-137.082 305.586-305.586s-137.082-305.586-305.586-305.586-305.586 137.082-305.586 305.586 137.082 305.586 305.586 305.586z" />
<glyph unicode="&#xe916;" glyph-name="bed" d="M1022.336 270.038c1.578 4.224 2.134 8.874 0.682 13.568l-84.352 274.134v252.926c0 58.794-47.83 106.666-106.666 106.666h-640c-58.838 0-106.666-47.872-106.666-106.666v-252.928l-84.352-274.132c-1.45-4.65-0.896-9.302 0.682-13.568-1.024-4.524-1.664-9.174-1.664-14.038v-256c0-11.776 9.558-21.334 21.334-21.334h85.334c11.774 0 21.332 9.558 21.332 21.334v64h768v-64c0-11.776 9.558-21.334 21.334-21.334h85.334c11.776 0 21.334 9.558 21.334 21.334v256c-0.002 4.864-0.642 9.514-1.666 14.038zM128 810.666c0 35.286 28.714 64 64 64h640c35.286 0 64-28.714 64-64v-234.666h-57.984l-19.882 79.53c-7.168 28.544-32.726 48.47-62.124 48.47h-137.344c-35.286 0-64-28.714-64-64v-64h-85.334v63.958c0 35.286-28.714 64-64 64h-137.344c-29.398 0-54.954-19.968-62.122-48.47l-19.882-79.488h-57.984v234.666zM794.198 541.526c-4.096-5.206-10.24-8.192-16.854-8.192h-158.678c-11.734 0-21.334 9.558-21.334 21.334v85.332c0 11.776 9.6 21.334 21.334 21.334h137.386c9.814 0 18.304-6.614 20.694-16.128l21.334-85.334c1.622-6.442 0.214-13.098-3.882-18.346zM426.71 640v-85.12c0-0.086-0.042-0.128-0.042-0.214 0-0.042 0-0.086 0-0.086-0.042-11.734-9.6-21.248-21.29-21.248h-158.678c-6.656 0-12.758 2.986-16.854 8.192-4.096 5.248-5.504 11.946-3.882 18.346l21.334 85.334c2.39 9.472 10.88 16.128 20.736 16.128h137.344c11.732 0.002 21.332-9.556 21.332-21.332zM122.41 533.334h64.214c2.262-6.4 5.206-12.544 9.514-18.090 12.288-15.616 30.678-24.576 50.518-24.576h158.678c27.776 0 51.242 17.92 60.074 42.666h93.184c8.832-24.79 32.298-42.666 60.074-42.666h158.678c19.84 0 38.186 8.96 50.474 24.576 4.31 5.504 7.254 11.69 9.514 18.090h64.256l65.878-214.102c-2.474 0.298-4.906 0.768-7.466 0.768h-896c-2.56 0-4.992-0.47-7.424-0.768l65.834 214.102zM85.334 21.334h-42.668v42.666h42.666v-42.666zM981.334 21.334h-42.666v42.666h42.666v-42.666zM981.334 106.666h-938.668v149.334c0 11.776 9.6 21.334 21.334 21.334h896c11.734 0 21.334-9.558 21.334-21.334v-149.334z" />
<glyph unicode="&#xe917;" glyph-name="arrow-thin-down" d="M460.8 144.794l-310.835 310.835-72.397-72.397 434.432-434.432 434.432 434.432-72.397 72.397-310.835-310.835v828.006h-102.4z" />
<glyph unicode="&#xe918;" glyph-name="car" d="M855.939 796.877h-49.982c-7.462 0-12.186-4.726-12.186-9.948h-0.002v-161.637c0-6.714 7.958-10.196 16.164-10.196 7.958 0 16.164 3.48 16.164 10.196v57.692h27.854c32.824 0 58.438 15.668 58.438 56.45v1.49c0 40.784-24.868 55.954-56.45 55.954zM880.059 736.945c0-19.396-9.946-28.598-26.11-28.598h-27.852v60.18h27.852c16.164 0 26.11-9.202 26.11-28.598v-2.984zM586.136 733.687c-47.208 47.208-109.972 73.206-176.733 73.206s-129.525-25.998-176.733-73.206c-5.698-5.696-5.698-14.932 0-20.63 5.696-5.696 14.932-5.696 20.628 0 41.698 41.696 97.136 64.66 156.103 64.66s114.408-22.964 156.103-64.66c2.85-2.848 6.584-4.272 10.316-4.272s7.466 1.424 10.316 4.272c5.696 5.696 5.696 14.934 0 20.63zM525.954 673.505c-64.268 64.268-168.837 64.268-233.103 0-5.698-5.696-5.698-14.934 0-20.63 5.696-5.696 14.934-5.696 20.63 0 52.892 52.89 138.951 52.89 191.843 0 2.848-2.848 6.58-4.272 10.314-4.272 3.732 0 7.466 1.424 10.316 4.272 5.696 5.696 5.696 14.934 0 20.63zM466.724 614.277c-31.608 31.608-83.038 31.608-114.646 0-5.698-5.696-5.698-14.932 0-20.63 5.696-5.698 14.934-5.696 20.63 0 20.234 20.232 53.154 20.232 73.388 0 2.848-2.85 6.582-4.272 10.314-4.272s7.466 1.424 10.314 4.272c5.698 5.698 5.698 14.932 0 20.63zM717.841 330.164c-6.312 3.474-12.54 7.278-18.508 11.31l-96.49 65.184c-29.284 19.784-63.444 30.24-98.784 30.24h-177.101c-47.010 0-91.242-18.274-124.55-51.454-17.12-17.058-36.624-31.326-57.97-42.41-12.624-6.556-20.466-19.458-20.466-33.672 0-20.932 17.028-37.96 37.96-37.96h60.38c8.056 0 14.588 6.532 14.588 14.588s-6.532 14.588-14.588 14.588h-60.38c-4.844 0-8.786 3.942-8.786 8.786 0 3.282 1.814 6.262 4.736 7.778 23.982 12.452 45.892 28.48 65.116 47.634 27.8 27.696 64.72 42.948 103.958 42.948h39.65v-107.146h-48.464c-8.056 0-14.588-6.532-14.588-14.588s6.532-14.588 14.588-14.588h399.994c11.992 0 21.748 9.756 21.748 21.748 0 15.356-8.448 29.54-22.044 37.014zM395.786 300.577v107.146h108.276c29.498 0 58.010-8.728 82.452-25.24l96.49-65.184c6.7-4.526 13.69-8.798 20.782-12.698 1.836-1.010 3.374-2.398 4.53-4.024h-312.529zM431.93 249.227h-45.060c-8.056 0-14.588-6.532-14.588-14.588s6.532-14.588 14.588-14.588h45.060c8.056 0 14.588 6.532 14.588 14.588s-6.532 14.588-14.588 14.588zM1011.414 261.471l-4.608 7.648c-17.366 28.818-46.252 49.11-79.25 55.674l-37.662 7.49v190.893h97.464c20.068 0 36.392 16.326 36.392 36.392v284.101c0 20.068-16.326 36.392-36.392 36.392h-284.101c-20.068 0-36.392-16.326-36.392-36.392v-107.77c0-8.056 6.53-14.588 14.588-14.588s14.588 6.532 14.588 14.588v107.77c0 3.98 3.238 7.218 7.218 7.218h284.103c3.98 0 7.218-3.238 7.218-7.218v-284.103c0-3.98-3.238-7.218-7.218-7.218h-284.105c-3.98 0-7.218 3.238-7.218 7.218v81.498c0 8.056-6.53 14.588-14.588 14.588s-14.588-6.532-14.588-14.588v-81.498c0-20.068 16.326-36.392 36.392-36.392h110.522v-175.757l-19.36 3.85c-26.72 5.314-52.77 21.44-70.042 33.11l-96.488 65.182c-36.71 24.798-79.528 37.906-123.828 37.906h-177.099c-58.93 0-114.376-22.906-156.121-64.496-26.416-26.318-59.668-44.268-96.162-51.912l-20.944-4.386c-31.136-6.52-53.734-34.344-53.734-66.156v-141.279c0-16.852 9.95-32.166 25.352-39.010l58.104-25.824c3.514-18.374 12.366-35.92 26.562-50.116 18.866-18.866 43.648-28.3 68.432-28.3s49.564 9.434 68.432 28.3c12.134 12.134 20.342 26.72 24.672 42.174h484.47c4.33-15.454 12.54-30.040 24.674-42.174 18.28-18.278 42.58-28.346 68.432-28.346 25.85 0 50.154 10.066 68.434 28.346 12.134 12.134 20.342 26.72 24.672 42.174h27.674c29.826 0 54.092 24.266 54.092 54.092v75.664c-0.004 15.948-4.356 31.596-12.586 45.256zM842.953 523.176h17.768v-185.091l-17.768 3.534v181.557zM226.249 64.913c-12.768-12.768-29.744-19.8-47.802-19.8s-35.034 7.032-47.802 19.8c-20.482 20.482-25.038 50.94-13.69 75.872 0.092 0.2 0.18 0.402 0.272 0.602 0.346 0.74 0.712 1.472 1.086 2.2 0.176 0.344 0.352 0.686 0.536 1.026 0.338 0.632 0.69 1.26 1.050 1.884 0.248 0.43 0.502 0.856 0.76 1.28 0.334 0.55 0.672 1.098 1.024 1.64 0.318 0.49 0.646 0.974 0.978 1.456 0.328 0.478 0.654 0.958 0.994 1.428 0.39 0.538 0.796 1.066 1.204 1.594 0.318 0.412 0.628 0.828 0.956 1.234 0.48 0.594 0.982 1.174 1.482 1.754 0.286 0.33 0.56 0.668 0.852 0.994 0.744 0.826 1.51 1.636 2.298 2.43 0.068 0.068 0.13 0.14 0.198 0.208 0.15 0.15 0.308 0.29 0.46 0.438 0.668 0.656 1.34 1.304 2.026 1.926 0.178 0.162 0.366 0.312 0.546 0.472 0.684 0.606 1.372 1.208 2.076 1.782 0.066 0.054 0.136 0.104 0.202 0.158 24.726 20.010 60.388 19.986 85.084-0.080 0.028-0.024 0.058-0.044 0.088-0.068 0.754-0.614 1.492-1.258 2.226-1.91 0.132-0.116 0.268-0.226 0.398-0.344 0.848-0.766 1.68-1.556 2.496-2.372 0.88-0.88 1.728-1.786 2.552-2.704 0.362-0.404 0.704-0.818 1.054-1.228 0.428-0.5 0.858-1.002 1.27-1.512 0.462-0.574 0.908-1.158 1.348-1.742 0.248-0.326 0.494-0.654 0.734-0.984 0.534-0.736 1.054-1.48 1.556-2.234 0.086-0.128 0.17-0.258 0.254-0.386 17.16-26.21 14.24-61.806-8.766-84.814zM896.928 64.913c-12.77-12.768-29.746-19.8-47.804-19.8s-35.032 7.032-47.8 19.8c-23.010 23.008-25.93 58.61-8.768 84.818 0.082 0.126 0.164 0.252 0.248 0.376 0.502 0.756 1.024 1.502 1.56 2.242 0.238 0.328 0.482 0.652 0.728 0.974 0.442 0.588 0.89 1.174 1.356 1.752 0.41 0.506 0.834 1.002 1.26 1.498 0.354 0.414 0.7 0.834 1.066 1.24 0.824 0.918 1.672 1.822 2.552 2.702 12.768 12.768 29.742 19.8 47.8 19.8s35.034-7.032 47.802-19.8c0.88-0.88 1.728-1.786 2.552-2.704 0.364-0.404 0.706-0.82 1.058-1.232 0.428-0.498 0.856-0.998 1.266-1.506 0.464-0.576 0.91-1.16 1.352-1.746 0.246-0.326 0.492-0.652 0.732-0.982 0.534-0.738 1.056-1.48 1.556-2.234 0.086-0.128 0.17-0.256 0.254-0.384 17.156-26.208 14.236-61.808-8.77-84.814zM994.826 140.551h-0.004c0-13.74-11.178-24.918-24.918-24.918h-24.016c-0.572 21.158-8.040 41.344-21.48 57.894-0.090 0.112-0.176 0.228-0.268 0.34-0.832 1.014-1.694 2.008-2.57 2.996-0.224 0.252-0.436 0.512-0.662 0.764-0.928 1.022-1.888 2.024-2.864 3.012-0.166 0.168-0.318 0.344-0.486 0.51-12.568 12.566-27.982 21.252-44.788 25.452-7.64 1.91-15.566 2.892-23.646 2.892-6.462 0-12.828-0.63-19.028-1.858-18.598-3.688-35.694-12.778-49.404-26.486-0.164-0.164-0.314-0.336-0.476-0.502-0.98-0.994-1.944-1.998-2.874-3.024-0.22-0.242-0.424-0.494-0.64-0.738-0.884-0.996-1.756-2-2.594-3.024-0.084-0.102-0.162-0.208-0.246-0.312-13.45-16.552-20.926-36.75-21.5-57.918h-477.154c-0.574 21.194-8.066 41.416-21.55 57.982-0.062 0.078-0.122 0.156-0.184 0.234-0.88 1.076-1.794 2.13-2.724 3.174-0.172 0.192-0.332 0.39-0.506 0.582-1.090 1.202-2.21 2.386-3.368 3.544-4.716 4.716-9.804 8.844-15.166 12.382-16.092 10.612-34.678 15.918-53.264 15.918-24.782 0-49.566-9.434-68.432-28.3-1.078-1.078-2.12-2.184-3.14-3.304-0.302-0.332-0.592-0.67-0.89-1.004-0.72-0.814-1.428-1.636-2.118-2.468-0.306-0.37-0.612-0.742-0.912-1.118-0.714-0.89-1.41-1.79-2.090-2.7-0.212-0.284-0.43-0.562-0.636-0.848-1.828-2.502-3.524-5.082-5.092-7.728-0.044-0.074-0.086-0.15-0.13-0.224-0.766-1.302-1.5-2.622-2.202-3.956-0.020-0.038-0.040-0.078-0.062-0.116-5.086-9.678-8.506-20.146-10.074-31.004l-45.466 20.208c-4.876 2.168-8.026 7.016-8.026 12.35v141.279c0 18.082 12.846 33.896 30.544 37.604l20.944 4.386c42.040 8.806 80.344 29.484 110.772 59.798 36.24 36.106 84.372 55.99 135.529 55.99h177.099c38.458 0 75.628-11.38 107.496-32.906l96.488-65.182c19.362-13.082 48.792-31.206 80.682-37.55l133.139-26.476c24.964-4.966 46.814-20.316 59.952-42.116l4.608-7.648c5.494-9.114 8.396-19.558 8.396-30.2v-75.664zM209.765 144.031c-8.368 8.366-19.488 12.972-31.318 12.972s-22.952-4.608-31.316-12.972c-8.364-8.364-12.972-19.486-12.972-31.316s4.608-22.952 12.972-31.316c8.364-8.364 19.486-12.972 31.318-12.972 11.83 0 22.952 4.606 31.316 12.972 17.268 17.268 17.268 45.364 0 62.632zM189.133 102.029c-2.854-2.854-6.65-4.426-10.686-4.426-4.038 0-7.832 1.572-10.686 4.428-2.854 2.854-4.428 6.648-4.428 10.686s1.572 7.832 4.428 10.686c2.854 2.854 6.648 4.428 10.686 4.428 4.036 0 7.832-1.572 10.686-4.428 5.892-5.894 5.892-15.482 0-21.374zM880.443 144.029c-8.364 8.366-19.486 12.974-31.318 12.974-11.83 0-22.95-4.606-31.318-12.972-17.266-17.268-17.266-45.364 0-62.632 8.366-8.366 19.488-12.972 31.318-12.972 11.832 0 22.952 4.606 31.316 12.97 8.366 8.364 12.972 19.486 12.972 31.316s-4.606 22.952-12.97 31.316zM859.811 102.027c-2.854-2.854-6.648-4.426-10.686-4.426-4.036 0-7.832 1.572-10.686 4.426-5.892 5.892-5.892 15.48 0 21.372 2.854 2.854 6.65 4.428 10.686 4.428 4.038 0 7.832-1.572 10.688-4.428 2.854-2.854 4.426-6.648 4.426-10.686 0-4.034-1.57-7.83-4.428-10.686z" />
<glyph unicode="&#xe919;" glyph-name="arrow-thin-up" d="M460.8 776.806l-310.835-310.835-72.397 72.397 434.432 434.432 434.432-434.432-72.397-72.397-310.835 310.835v-828.006h-102.4v828.006z" />
<glyph unicode="&#xe91a;" glyph-name="document" d="M704.918 520c0 22.092-17.908 40-40 40h-412c-22.092 0-40-17.908-40-40s17.908-40 40-40h412c22.092 0 40 17.908 40 40zM252.918 400c-22.092 0-40-17.908-40-40s17.908-40 40-40h250.222c22.092 0 40 17.908 40 40s-17.908 40-40 40h-250.222zM346.918 16h-133.778c-44.112 0-80 35.888-80 80v704c0 44.112 35.888 80 80 80h491.778c44.112 0 80-35.888 80-80v-246c0-22.092 17.908-40 40-40s40 17.908 40 40v246c0 88.224-71.776 160-160 160h-491.778c-88.224 0-160-71.776-160-160v-704c0-88.224 71.776-160 160-160h133.778c22.092 0 40 17.908 40 40s-17.908 40-40 40zM935.768 380.856c-46.788 46.788-122.916 46.79-169.674 0.032l-219.606-219.12c-4.664-4.654-8.104-10.386-10.020-16.69l-47.826-157.45c-4.24-13.96-0.546-29.118 9.642-39.56 7.632-7.822 18-12.068 28.634-12.068 3.558 0 7.15 0.476 10.676 1.454l161.45 44.722c6.644 1.84 12.7 5.366 17.58 10.238l219.146 218.734c46.788 46.788 46.788 122.916-0.002 169.708zM667.552 56.464l-81.224-22.5 23.77 78.258 148.178 147.85 56.58-56.58-147.304-147.028zM879.23 267.74l-7.75-7.734-56.57 56.57 7.724 7.708c15.596 15.596 40.972 15.596 56.568 0s15.596-40.972 0.028-56.544zM664.918 720h-412c-22.092 0-40-17.908-40-40s17.908-40 40-40h412c22.092 0 40 17.908 40 40s-17.908 40-40 40z" />
<glyph unicode="&#xe91b;" glyph-name="electric-generator" d="M16 680h16v-512c0-21.376 8.336-41.472 23.44-56.56 15.104-15.12 35.2-23.44 56.56-23.44h18.88l10.848-54.304c3.008-14.896 16.208-25.696 31.392-25.696h101.76c15.184 0 28.368 10.8 31.392 25.728l10.848 54.272h434.496c23.776-46.864 72.336-79.12 128.384-79.12 79.392 0 144 64.608 144 144 0 56.4-32.672 105.184-80 128.8v398.32h16c8.832 0 16 7.168 16 16v64c0 26.464-21.536 48-48 48h-48v48c0 17.648-14.352 32-32 32h-128c-17.648 0-32-14.352-32-32v-48h-416c-8.832 0-16-7.168-16-16s7.168-16 16-16h656c8.816 0 16-7.184 16-16v-48h-912v48c0 8.816 7.184 16 16 16h96c8.832 0 16 7.168 16 16s-7.168 16-16 16h-96c-26.464 0-48-21.536-48-48v-64c0-8.832 7.168-16 16-16zM720 856h128v-48h-128zM274.88 40l-101.76-0.016-9.6 48.016h120.976zM992 152.88c0-61.76-50.24-112-112-112s-112 50.24-112 112 50.24 112 112 112 112-50.24 112-112zM912 440h-48c-8.832 0-16-7.168-16-16s7.168-16 16-16h48v-114.832c-10.304 2.352-20.992 3.712-32 3.712-79.392 0-144-64.608-144-144 0-11.328 1.456-22.288 3.936-32.88h-627.936c-12.816 0-24.864 4.992-33.952 14.064-9.056 9.056-14.048 21.104-14.048 33.936v240h74.384l-8.368-15.072c-2.752-4.96-2.672-11.008 0.192-15.888 2.88-4.88 8.112-7.888 13.792-7.888h81.136v-81.152c0-7.136 4.72-13.408 11.584-15.376 1.456-0.416 2.944-0.624 4.416-0.624 5.408 0 10.592 2.752 13.568 7.52l80.32 128.48h400.976c8.832 0 16 7.168 16 16s-7.168 16-16 16h-382.192c0.816 3.744 0.4 7.712-1.52 11.184-2.816 5.088-8.176 8.24-14 8.24h-81.152v100.576c0 7.296-4.928 13.664-11.984 15.488-7.072 1.84-14.464-1.344-18-7.712l-70.992-127.776h-92.16v240h848zM241.136 427.424h68.288l-52.288-83.648v41.36c0 8.832-7.168 16-16 16h-69.952l53.952 97.104v-54.832c0-8.816 7.168-15.984 16-15.984zM816.88 152.88c0-34.8 28.32-63.12 63.12-63.12s63.12 28.32 63.12 63.12-28.32 63.12-63.12 63.12-63.12-28.32-63.12-63.12zM911.12 152.88c0-17.152-13.968-31.12-31.12-31.12s-31.12 13.968-31.12 31.12c0 17.168 13.968 31.12 31.12 31.12s31.12-13.968 31.12-31.12zM304 520h256c8.832 0 16 7.168 16 16v96c0 8.832-7.168 16-16 16h-256c-8.832 0-16-7.168-16-16v-96c0-8.832 7.168-16 16-16zM320 616h224v-64h-224zM528 344h-192c-8.832 0-16-7.168-16-16s7.168-16 16-16h192c8.832 0 16 7.168 16 16s-7.168 16-16 16zM528 280h-192c-8.832 0-16-7.168-16-16s7.168-16 16-16h192c8.832 0 16 7.168 16 16s-7.168 16-16 16zM528 216h-192c-8.832 0-16-7.168-16-16s7.168-16 16-16h192c8.832 0 16 7.168 16 16s-7.168 16-16 16zM688 536c26.464 0 48 21.536 48 48s-21.536 48-48 48-48-21.536-48-48 21.536-48 48-48zM688 600c8.816 0 16-7.184 16-16s-7.184-16-16-16-16 7.184-16 16 7.184 16 16 16zM816 536c26.464 0 48 21.536 48 48s-21.536 48-48 48-48-21.536-48-48 21.536-48 48-48zM816 600c8.816 0 16-7.184 16-16s-7.184-16-16-16-16 7.184-16 16 7.184 16 16 16zM816 424c0-8.837-7.163-16-16-16s-16 7.163-16 16c0 8.837 7.163 16 16 16s16-7.163 16-16zM224 792c0-8.837-7.163-16-16-16s-16 7.163-16 16c0 8.837 7.163 16 16 16s16-7.163 16-16z" />
<glyph unicode="&#xe91c;" glyph-name="chevron-left" d="M614.997 700.331c-33.28 33.323-87.381 33.323-120.661 0l-273.707-273.664 273.707-273.664c16.64-16.683 38.485-25.003 60.331-25.003s43.691 8.32 60.331 25.003c33.323 33.323 33.323 87.339 0 120.661l-152.96 153.003 152.96 153.003c33.323 33.323 33.323 87.339 0 120.661z" />
<glyph unicode="&#xe91d;" glyph-name="elevator" d="M960 720h-112v96h32v128h-864v-128h32v-864h215.84c0.048 0 0.096-0.016 0.16-0.016s0.096 0.016 0.16 0.016h79.696c0.048 0 0.096-0.016 0.16-0.016s0.080 0.016 0.144 0.016h143.696c0.048 0 0.096-0.016 0.16-0.016s0.080 0.016 0.144 0.016h79.696c0.048 0 0.096-0.016 0.16-0.016s0.080 0.016 0.144 0.016h279.84v288h112c26.464 0 48 21.536 48 48v384c0 26.464-21.536 48-48 48zM816 720h-16c-26.464 0-48-21.536-48-48v-176.016h-152.656c15.28 17.008 24.656 39.408 24.656 64.016 0 28.336-12.416 53.76-32 71.36v184.64h224zM899.744 400l-19.744-32.912-19.744 32.912zM832.080 432l-192.080-0.016c-26.464 0-48-21.536-48-48v-376c0-13.184-10.688-23.904-23.84-23.984h-0.32c-13.152 0.080-23.84 10.8-23.84 23.984v232.016h-32v-232.016c0-13.184-10.688-23.904-23.84-23.984h-0.32c-13.152 0.080-23.84 10.8-23.84 23.984v376h-32v-160c-17.648 0-32 14.352-32 32v128c0 44.112 35.888 80 80 80h352c8.816 0 16-7.168 16-16 0-8.8-7.136-15.936-15.92-15.984zM343.84-16c-13.152 0.080-23.84 10.8-23.84 23.984v232h-32v-232c0-13.184-10.688-23.904-23.84-23.984h-0.32c-13.152 0.080-23.84 10.8-23.84 23.984v424.016l112-0.016c8.528 0 16.928-1.52 24.96-4.144-5.76-13.488-8.96-28.304-8.96-43.856v-376c0-13.184-10.688-23.904-23.84-23.984zM560 816v-165.6c-10.032 3.552-20.768 5.6-32 5.6-52.944 0-96-43.056-96-96 0-25.632 10.16-48.896 26.576-66.128-25.68-4.992-48.256-18.784-64.432-38.112-6.72 2.72-13.744 4.56-20.864 5.952 16.512 17.248 26.72 40.576 26.72 66.288 0 52.944-43.056 96-96 96-24.608 0-46.992-9.376-64-24.64v216.64zM592 560c0-35.296-28.704-64-64-64s-64 28.704-64 64 28.704 64 64 64 64-28.704 64-64zM240 528c0 35.296 28.704 64 64 64s64-28.704 64-64-28.704-64-64-64-64 28.704-64 64zM400 7.984v192.896c9.456-5.504 20.288-8.896 32-8.896v-184c0-8.608 2.112-16.688 5.616-23.984h-43.216c3.488 7.296 5.6 15.376 5.6 23.984zM48 912h800v-64h-800zM80 816h128v-832h-128zM816-16h-197.616c3.504 7.296 5.616 15.376 5.616 23.984v376c0 8.832 7.184 16 16 16h112v-111.984c0-26.464 21.536-48 48-48h16zM976 288c0-8.832-7.184-16-16-16h-160c-8.816 0-16 7.168-16 16v111.984h38.96l57.040-95.072 76.256 127.088h-79.2c1.792 5.024 2.944 10.352 2.944 15.984 0 26.464-21.536 48-48 48h-48v176.016c0 8.832 7.184 16 16 16h160c8.816 0 16-7.168 16-16zM803.744 528h152.512l-76.256 127.088zM860.256 560l19.744 32.912 19.744-32.912zM112 784h32v-32h-32zM112 720h32v-32h-32zM112 656h32v-32h-32zM752 784h32v-32h-32zM688 784h32v-32h-32zM624 784h32v-32h-32zM752 48h32v-32h-32zM752 208h32v-128h-32z" />
<glyph unicode="&#xe91e;" glyph-name="faucet" d="M967.518 641.34h-129.134c-1.744 0-3.478-0.244-5.154-0.724l-312.504-89.686c-9.918-2.848-15.654-13.194-12.806-23.116s13.208-15.656 23.116-12.806l309.978 88.96h126.502c10.536 0 19.11-8.574 19.11-19.11v-53.144h-148.244c-3.306 0-6.552-0.876-9.41-2.544l-527.502-307.512v227.464l167.866 48.178c9.918 2.848 15.654 13.194 12.806 23.116s-13.194 15.656-23.116 12.806l-157.556-45.222v105.922l251.316 132.048c26.82 14.092 39.364 46.236 29.172 74.77-10.244 28.692-40.442 45.582-70.25 39.31-91.922-19.374-318.054-66.57-432.268-86.292-46.030-7.942-79.44-47.632-79.44-94.378v-115.208c0-10.32 8.366-18.686 18.686-18.686s18.686 8.366 18.686 18.686v42.356h226.724v-122.904c0-0.004 0-0.010 0-0.014v-371.59h-226.724v387.37c0 10.32-8.366 18.686-18.686 18.686s-18.686-8.366-18.686-18.686v-406.060c0-10.32 8.366-18.686 18.686-18.686h264.098c10.32 0 18.686 8.366 18.686 18.686v105.068l541.962 315.942h8.656v-41.11c0-10.32 8.366-18.686 18.686-18.686h112.116c10.32 0 18.686 8.366 18.686 18.686v41.11h3.738c10.32 0 18.686 8.366 18.686 18.686v71.83c0 31.148-25.338 56.484-56.482 56.484zM278.172 623.898h-240.8v35.482c0 28.508 20.362 52.71 48.424 57.55 114.828 19.828 341.496 67.134 433.618 86.552 11.606 2.446 23.358-4.138 27.348-15.31 3.968-11.112-0.916-23.63-11.362-29.118l-257.228-135.156zM964.204 471.918h-74.744v22.424h74.744v-22.424zM988.272 328.752l-48.228 48.226c-7.296 7.3-19.128 7.298-26.424 0l-48.226-48.226c-33.876-33.88-33.876-89 0-122.878 16.94-16.938 39.188-25.408 61.438-25.408 22.252 0 44.5 8.468 61.44 25.408 33.876 33.878 33.876 89 0 122.878zM961.844 232.302c-19.306-19.304-50.72-19.306-70.026 0s-19.306 50.72 0 70.026l35.012 35.012 35.012-35.012c19.306-19.306 19.306-50.722 0.002-70.026z" />
<glyph unicode="&#xe91f;" glyph-name="fire-alarm" d="M720 688c26.464 0 48 21.536 48 48s-21.536 48-48 48-48-21.536-48-48 21.536-48 48-48zM720 752c8.816 0 16-7.168 16-16s-7.184-16-16-16-16 7.168-16 16 7.184 16 16 16zM16 944v-106.208c0-5.776 1.024-11.472 3.056-16.864l86.176-229.792c6.864-18.288 24.432-30.624 43.904-31.056l58.864-147.152v-12.928c0-35.296 28.704-64 64-64h480c35.296 0 64 28.704 64 64v12.928l58.864 147.168c19.472 0.432 37.024 12.768 43.904 31.056l86.176 229.792c2.032 5.392 3.056 11.072 3.056 16.848v106.208zM976 912v-64h-928v64zM640 816h160v-80c0-44.112-35.888-80-80-80s-80 35.888-80 80zM183.632 560h125.536l51.2-128h-125.536zM528 432v128h152.368l-51.2-128zM496 432h-101.168l-51.2 128h152.368zM752 368h-480c-17.648 0-32 14.352-32 32h544c0-17.648-14.352-32-32-32zM789.168 432h-125.536l51.2 128h125.536zM888.8 602.384c-2.336-6.208-8.352-10.384-14.976-10.384h-723.648c-6.64 0-12.656 4.176-14.992 10.384l-80.096 213.616h552.912v-80c0-61.744 50.24-112 112-112s112 50.256 112 112v80h136.912zM512-16c-122.544 0-237.792 49.408-324.496 139.12l-23.008-22.256c92.8-95.984 216.208-148.864 347.504-148.864s254.704 52.88 347.504 148.88l-23.008 22.256c-86.704-89.728-201.952-139.136-324.496-139.136zM228.72 164.656c78.096-77.648 180.688-116.448 283.28-116.448s205.184 38.816 283.28 116.448l-22.56 22.688c-143.76-142.912-377.664-142.912-521.44 0zM730.896 228.288l-21.776 23.44c-108.688-100.912-285.536-100.912-394.224 0l-21.776-23.44c60.352-56.048 139.616-84.064 218.896-84.064s158.528 28.016 218.88 84.064z" />
<glyph unicode="&#xe920;" glyph-name="laundry-room" d="M48 800v-816c0-8.837 7.163-16 16-16v0h896c8.837 0 16 7.163 16 16v0 816c8.837 0 16 7.163 16 16v0 96c0 8.837-7.163 16-16 16v0h-928c-8.837 0-16-7.163-16-16v0-96c0-8.837 7.163-16 16-16v0zM816 784c0-26.51-21.49-48-48-48s-48 21.49-48 48v0 16h96zM688 784c0-26.51-21.49-48-48-48s-48 21.49-48 48v0 16h96zM688 832h-96v64h96zM560 784c0-26.51-21.49-48-48-48s-48 21.49-48 48v0 16h96zM432 784c0-26.51-21.49-48-48-48s-48 21.49-48 48v0 16h96zM432 832h-96v64h96zM304 784c0-26.51-21.49-48-48-48s-48 21.49-48 48v0 16h96zM176 784c0-26.51-21.49-48-48-48s-48 21.49-48 48v0 16h96zM304 544h192v-32h-192zM560 288h-32v256h32zM496 288h-192v192h192zM272 288h-192v192h192zM80 256h192v-32h-192zM304 256h192v-32h-192zM272 512h-192v32h192zM80 192h192v-192h-192zM304 192h192v-192h-192zM528 0v256h32v-256zM742.626 0l21.836 21.836 24.954-21.836zM838.012 0l-50.872 44.512 35.486 35.488h41.374c26.501 0.011 47.981 21.497 47.981 48 0 20.767-13.188 38.454-31.647 45.142l-0.334 0.106v5.498c0 0.101 0 0.22 0 0.34 0 34.481-14.025 65.686-36.681 88.223l-0.005 0.005c-2.895 2.896-6.896 4.687-11.314 4.687s-8.419-1.791-11.314-4.687v0c-22.662-22.542-36.686-53.747-36.686-88.228 0-0.12 0-0.239 0.001-0.358v0.018-2.746h-32v36c-0.005 4.364-1.016 8.492-2.812 12.164l0.072-0.164c1.724 3.508 2.735 7.636 2.74 11.998v40.002c-0.017 15.457-12.543 27.983-27.998 28h-72.002c-15.457-0.017-27.983-12.543-28-27.998v-40.002c0.005-4.364 1.016-8.492 2.812-12.164l-0.072 0.164c-1.724-3.508-2.735-7.636-2.74-11.998v-40.002c0.003-7.214 2.748-13.786 7.248-18.733l-0.020 0.023c-4.536-7.192-7.228-15.943-7.228-25.322 0-26.492 21.476-47.968 47.968-47.968 0.011 0 0.023 0 0.034 0h25.986l42.338-37.046-42.952-42.954h-105.374v544c-0.022 17.664-14.336 31.978-31.998 32h-480.002v144.044c13.201-10.015 29.906-16.044 48.018-16.044 26.089 0 49.257 12.507 63.835 31.852l0.147 0.203c14.732-19.549 37.905-32.056 64-32.056s49.268 12.507 63.853 31.853l0.147 0.203c14.732-19.549 37.905-32.056 64-32.056s49.268 12.507 63.853 31.853l0.147 0.203c14.732-19.549 37.905-32.056 64-32.056s49.268 12.507 63.853 31.853l0.147 0.203c14.732-19.549 37.905-32.056 64-32.056s49.268 12.507 63.853 31.853l0.147 0.203c14.732-19.549 37.905-32.056 64-32.056s49.268 12.507 63.853 31.853l0.147 0.203c14.725-19.549 37.893-32.056 63.982-32.056 18.113 0 34.817 6.028 48.217 16.188l-0.199-0.145v-720.044zM656 176v32h64v-32h-64zM720 240h-64v32h64zM672 144h192c8.837 0 16-7.163 16-16s-7.163-16-16-16v0h-192c-8.837 0-16 7.163-16 16s7.163 16 16 16v0zM848 176h-32v2.746c0 0.074 0 0.161 0 0.249 0 19.426 5.982 37.455 16.204 52.346l-0.204-0.315c10.018-14.576 16-32.605 16-52.031 0-0.087 0-0.175 0-0.262v0.014zM777.374 80l-14.37-14.368-16.42 14.368zM944 784c0-26.51-21.49-48-48-48s-48 21.49-48 48v0 16h96zM960 832h-112v64h112zM816 896v-64h-96v64zM560 896v-64h-96v64zM304 896v-64h-96v64zM64 896h112v-64h-112zM176 160c-35.346 0-64-28.654-64-64s28.654-64 64-64c35.346 0 64 28.654 64 64v0c-0.041 35.33-28.67 63.959-63.996 64h-0.004zM176 64c-17.673 0-32 14.327-32 32s14.327 32 32 32c17.673 0 32-14.327 32-32v0c-0.022-17.664-14.336-31.978-31.998-32h-0.002zM400 160c-35.346 0-64-28.654-64-64s28.654-64 64-64c35.346 0 64 28.654 64 64v0c-0.041 35.33-28.67 63.959-63.996 64h-0.004zM400 64c-17.673 0-32 14.327-32 32s14.327 32 32 32c17.673 0 32-14.327 32-32v0c-0.022-17.664-14.336-31.978-31.998-32h-0.002zM400 320c35.346 0 64 28.654 64 64s-28.654 64-64 64c-35.346 0-64-28.654-64-64v0c0.041-35.33 28.67-63.959 63.996-64h0.004zM400 416c17.673 0 32-14.327 32-32s-14.327-32-32-32c-17.673 0-32 14.327-32 32v0c0.022 17.664 14.336 31.978 31.998 32h0.002zM176 320c35.346 0 64 28.654 64 64s-28.654 64-64 64c-35.346 0-64-28.654-64-64v0c0.041-35.33 28.67-63.959 63.996-64h0.004zM176 416c17.673 0 32-14.327 32-32s-14.327-32-32-32c-17.673 0-32 14.327-32 32v0c0.022 17.664 14.336 31.978 31.998 32h0.002zM859.716 570.912c-12.261 12.325-28.983 20.202-47.539 21.005l-0.149 0.005-28.028 10.99v29.088c0 4.418 3.582 8 8 8s8-3.582 8-8v0c0-8.837 7.163-16 16-16s16 7.163 16 16v0c0 22.091-17.909 40-40 40s-40-17.909-40-40v0-29.088l-28.028-10.99c-18.705-0.808-35.427-8.685-47.685-21.007l-47.603-47.603c-2.896-2.896-4.687-6.896-4.687-11.315 0-3.308 1.004-6.381 2.723-8.932l-0.036 0.057 32-48c2.91-4.32 7.784-7.123 13.312-7.123 2.609 0 5.071 0.624 7.247 1.731l-0.091-0.042 8.848 4.424v-70.112c0-8.837 7.163-16 16-16v0h128c8.837 0 16 7.163 16 16v0 70.112l8.844-4.422c2.085-1.065 4.548-1.689 7.156-1.689 5.528 0 10.402 2.804 13.276 7.067l0.036 0.057 32 48c1.683 2.494 2.687 5.567 2.687 8.875 0 4.419-1.791 8.419-4.687 11.315v0zM768 574.814l18.34-7.2c-4.687-4.708-11.173-7.622-18.34-7.622s-13.653 2.914-18.339 7.621l-0.001 0.001zM858.522 484.628l-19.366 9.682c-2.085 1.065-4.548 1.689-7.156 1.689-8.836 0-16-7.163-16-15.999v0-80h-96v80c0 8.836-7.164 15.999-16 15.999-2.608 0-5.071-0.624-7.247-1.731l0.091 0.042-19.366-9.682-16.89 25.332 38.324 38.324c4.822 4.846 10.884 8.455 17.669 10.311l0.279 0.065c9.968-18.385 29.121-30.66 51.14-30.66s41.172 12.275 50.988 30.355l0.152 0.305c7.064-1.921 13.126-5.53 17.946-10.374l38.326-38.326z" />
<glyph unicode="&#xe921;" glyph-name="menu11" d="M128 682.667h768v-86h-768v86zM128 384.667v84h768v-84h-768zM128 170.667v86h768v-86h-768z" />
<glyph unicode="&#xe922;" glyph-name="playground" d="M512 505.815c-27.318 0-49.548-22.231-49.548-49.548s22.231-49.548 49.548-49.548 49.548 22.231 49.548 49.548-22.231 49.548-49.548 49.548zM512 439.75c-9.117 0-16.516 7.399-16.516 16.516s7.399 16.516 16.516 16.516 16.516-7.399 16.516-16.516-7.399-16.516-16.516-16.516zM969.91 654.46h-6.788c-4.971 0-9.91-0.677-14.633-2.015l-109.832-30.836-23.899 95.628 23.337 6.111c13.262 3.468 24.246 11.809 30.918 23.469 6.458 11.314 8.060 24.394 4.525 36.864v0.017c-7.366 25.831-35.031 41.175-61.589 34.238l-130.543-34.155c-13.262-3.485-24.246-11.826-30.902-23.502-6.458-11.297-8.060-24.378-4.525-36.864 6.161-21.636 26.508-35.906 48.59-35.906 4.311 0 8.671 0.529 12.998 1.668l24.873 6.507 24.262-97.082-195.402-54.85c-15.063 7.465-31.86 11.611-49.301 11.611-38.367 0-73.447-20.183-93.597-51.712l-158.505-44.494-23.222 92.92 23.337 6.111c13.262 3.468 24.246 11.809 30.918 23.469 6.458 11.314 8.060 24.394 4.525 36.864v0.017c-7.35 25.848-34.998 41.142-61.589 34.238l-130.543-34.155c-13.262-3.485-24.246-11.826-30.902-23.502-6.458-11.297-8.060-24.378-4.525-36.864 6.161-21.636 26.508-35.906 48.59-35.906 4.311 0 8.671 0.529 12.998 1.668l24.873 6.507 23.585-94.373-138.471-38.862c-23.255-6.524-39.474-27.945-39.474-52.092 0-29.812 24.279-54.090 54.090-54.090h6.788c4.971 0 9.91 0.677 14.633 2.015l292.534 82.102-54.239-147.225v-19.473h-33.032v-132.129h462.452v132.129h-33.032v19.473l-81.226 220.474 355.559 99.807c23.238 6.507 39.474 27.929 39.474 52.075 0 29.828-24.279 54.107-54.090 54.107zM699.194 721.135c-9.348-2.428-18.994 2.61-21.471 11.297-1.090 3.865-0.578 7.928 1.437 11.462 2.23 3.898 5.995 6.722 10.603 7.911l130.527 34.155c1.602 0.429 3.188 0.628 4.773 0.628 7.663 0 14.633-4.707 16.698-11.908 1.090-3.865 0.578-7.928-1.437-11.462-2.23-3.898-5.995-6.706-10.603-7.911l-130.527-34.172zM806.846 612.674l-18.349-5.153-24.13 96.52 18.432 4.823 24.047-96.19zM121.129 555.974c-9.315-2.444-18.994 2.61-21.471 11.297-1.090 3.865-0.578 7.944 1.437 11.462 2.23 3.898 5.995 6.722 10.603 7.911l130.527 34.155c1.602 0.429 3.188 0.628 4.773 0.628 7.663 0 14.633-4.707 16.698-11.908 1.090-3.865 0.578-7.944-1.437-11.462-2.23-3.898-5.995-6.706-10.603-7.911l-130.527-34.172zM228.104 450.221l-18.349-5.137-23.453 93.795 18.432 4.823 23.37-93.481zM66.543 324.914c-1.817-0.512-3.716-0.776-5.649-0.776h-6.805c-11.611 0-21.058 9.447-21.058 21.058 0 9.398 6.326 17.738 15.377 20.282l352.504 98.948-18.762-50.919-315.607-88.593zM677.161 222.084v-13.56h-33.032v-33.032h66.065v-66.065h-396.387v66.065h297.29v33.032h-264.258v13.56l91.764 249.063c11.264 30.621 40.762 51.183 73.398 51.183s62.134-20.563 73.398-51.183l91.764-249.063zM975.591 580.088l-358.086-100.517-1.107 3.006c-5.037 13.659-12.85 25.683-22.313 36.071l363.371 102.004c1.817 0.512 3.716 0.776 5.649 0.776h6.788c11.627 0 21.075-9.447 21.075-21.058 0-9.414-6.326-17.755-15.377-20.282z" />
<glyph unicode="&#xe923;" glyph-name="policeman" d="M881.002 237.914c-0.118 0.194-0.234 0.39-0.352 0.586-0.86 1.406-1.742 2.8-2.644 4.184-0.496 0.764-0.996 1.526-1.504 2.282-0.618 0.918-1.242 1.832-1.88 2.74-0.822 1.178-1.66 2.342-2.51 3.498-0.254 0.344-0.49 0.696-0.744 1.038-0.182 0.242-0.374 0.472-0.556 0.714-1.024 1.358-2.070 2.696-3.132 4.020-0.372 0.464-0.74 0.93-1.114 1.388-1.058 1.292-2.14 2.564-3.234 3.824-0.456 0.526-0.906 1.056-1.366 1.576-0.912 1.028-1.848 2.034-2.784 3.038-0.698 0.752-1.39 1.508-2.1 2.246-0.532 0.552-1.082 1.088-1.622 1.632-20.712 20.964-46.234 36.274-74.97 44.734-0.492 0.146-0.992 0.266-1.498 0.36-0.006 0-135.594 25.188-135.6 25.19-0.24 0.044-0.48 0.056-0.72 0.094-6.344 1.032-12.826 0.182-18.644-2.366-4.72 5.796-7.83 13.758-7.83 21.114v24.548c8.57 5.472 16.892 11.622 24.924 18.538 33.602 28.932 54.764 70.694 59.33 116.252 24.672 1.14 44.39 21.568 44.39 46.516v34.976c0 14.144-6.338 27.232-17.008 35.968v80.404c49.028 24.162 59.682 52.332 59.682 72.208 0 34.104-31.764 76.792-82.896 111.408-32.758 22.174-101.342 59.376-192.622 59.376s-159.862-37.202-192.62-59.376c-51.132-34.614-82.896-77.302-82.896-111.408 0-19.876 10.654-48.046 59.682-72.208v-80.404c-10.668-8.736-17.008-21.824-17.008-35.968v-34.976c0-24.948 19.718-45.376 44.39-46.516 4.564-45.558 25.728-87.322 59.33-116.252 8.032-6.916 16.354-13.066 24.924-18.538v-24.548c0-7.356-3.11-15.316-7.83-21.112-6.038 2.646-12.794 3.494-19.364 2.27l-135.598-25.19c-0.506-0.094-1.006-0.214-1.498-0.36-28.722-8.456-54.232-23.754-74.94-44.702-0.554-0.558-1.114-1.108-1.66-1.672-0.7-0.726-1.382-1.474-2.070-2.214-0.946-1.016-1.89-2.032-2.814-3.070-0.454-0.512-0.898-1.036-1.348-1.554-1.1-1.266-2.186-2.544-3.248-3.842-0.374-0.456-0.738-0.92-1.108-1.38-1.064-1.328-2.112-2.666-3.136-4.024-0.182-0.242-0.374-0.47-0.556-0.714-0.256-0.342-0.492-0.694-0.744-1.038-0.85-1.156-1.688-2.32-2.51-3.498-0.638-0.91-1.264-1.826-1.882-2.744-0.506-0.754-1.004-1.512-1.498-2.274-0.902-1.386-1.786-2.782-2.648-4.188-0.118-0.194-0.236-0.39-0.352-0.584-16.578-27.318-25.296-58.338-25.296-90.692v-18.288c0-8.288 6.718-15.004 15.004-15.004s15.004 6.718 15.004 15.004v18.288c0 14.624 2.168 28.914 6.344 42.566 8.83-7.022 19.546-10.762 30.684-10.762 1.78 0 3.574 0.096 5.368 0.29 13.138 1.408 24.942 7.85 33.236 18.136l16.328 20.25c8.294 10.286 12.086 23.188 10.678 36.326-1.12 10.44-5.428 20.032-12.308 27.696 4.312 1.754 8.716 3.336 13.23 4.69l86.522 16.072 68.656-96.074c6.872-9.612 17.632-14.912 28.792-14.912 4.682 0 9.434 0.932 13.998 2.87l4.57 1.942 19.98-23.228-28.818-207.076h-188.548v121.666c0 8.288-6.718 15.004-15.004 15.004s-15.004-6.716-15.004-15.004v-121.666h-60.020c-10.302 0-18.68 8.38-18.68 18.68v74.428c0 8.288-6.718 15.004-15.004 15.004s-15.004-6.718-15.004-15.004v-74.428c0-26.846 21.842-48.69 48.69-48.69h691.216c26.848 0 48.69 21.844 48.69 48.69v162.53c-0.004 32.356-8.72 63.376-25.298 90.694zM216.306 236.536l-16.328-20.252c-3.262-4.046-7.904-6.578-13.072-7.134-5.16-0.552-10.242 0.936-14.288 4.2l-6.262 5.048c1.344 2.396 2.752 4.748 4.22 7.054 0.016 0.026 0.036 0.052 0.052 0.080 1.26 1.976 2.586 3.9 3.936 5.806 0.41 0.576 0.818 1.152 1.236 1.724 1.204 1.648 2.442 3.266 3.712 4.858 0.328 0.412 0.65 0.83 0.982 1.238 1.434 1.758 2.914 3.474 4.428 5.16 0.442 0.494 0.892 0.978 1.34 1.464 1.5 1.626 3.024 3.228 4.598 4.782 0.134 0.134 0.266 0.272 0.402 0.406 5.802 5.69 12.092 10.902 18.826 15.578l3.288-2.652c4.046-3.262 6.58-7.904 7.134-13.072 0.55-5.166-0.94-10.238-4.204-14.288zM810.624 263.9l3.288 2.652c6.736-4.676 13.024-9.888 18.826-15.578 0.136-0.134 0.266-0.272 0.402-0.406 1.574-1.556 3.098-3.158 4.598-4.782 0.448-0.486 0.898-0.97 1.34-1.464 1.514-1.686 2.994-3.404 4.428-5.16 0.332-0.408 0.654-0.826 0.982-1.238 1.27-1.592 2.508-3.212 3.712-4.858 0.418-0.57 0.828-1.148 1.236-1.724 1.35-1.906 2.676-3.832 3.936-5.806 0.018-0.026 0.036-0.052 0.052-0.080 1.47-2.306 2.878-4.658 4.22-7.054l-6.262-5.048c-4.048-3.262-9.126-4.75-14.288-4.2-5.168 0.554-9.81 3.088-13.074 7.136l-16.328 20.25c-6.736 8.352-5.418 20.624 2.932 27.36zM631.478 307.906c0.020 0.014 0.040 0.030 0.060 0.046l3.926 2.936c0.698 0.522 1.592 0.724 2.444 0.57l15.738-2.924-60.508-84.672c-1.514-2.12-4.246-2.888-6.644-1.87l-44.608 18.95 89.592 66.964zM511.998 256.070l-87.434 65.352c8.26 10.844 13.246 24.646 13.246 38.384v8.784c23.144-9.696 47.874-14.766 74.022-15.058 0.056 0 0.112 0 0.168 0s0.112 0 0.168 0c26.148 0.294 50.878 5.364 74.022 15.058v-8.784c0-13.74 4.986-27.54 13.244-38.384l-87.436-65.352zM541.206 208.626l-13.668-15.89h-31.074l-13.668 15.89 29.204 12.406 29.206-12.406zM296.164 751.212c-19.284 11.888-29.672 25.020-29.672 38.006 0 27.048 36.134 63.828 69.708 86.556 29.912 20.246 92.524 54.216 175.798 54.216s145.886-33.97 175.798-54.218c33.574-22.728 69.708-59.508 69.708-86.556 0-12.984-10.388-26.118-29.672-38.006v27.286c0 21.19-14.342 39.656-34.88 44.906-38.846 9.928-115.232 26.584-190.348 26.614-0.068 0-0.124 0-0.192 0-65.046 0-129.67-14.322-172.436-26.342-19.908-5.596-33.812-23.944-33.812-44.618v-27.844zM348.202 698.532c-0.21 0.134-0.424 0.266-0.632 0.4-0.972 0.622-1.908 1.248-2.818 1.876-0.37 0.256-0.736 0.512-1.096 0.77-0.744 0.528-1.466 1.060-2.166 1.592-0.482 0.368-0.948 0.736-1.408 1.104-0.552 0.44-1.094 0.88-1.614 1.322-0.554 0.472-1.080 0.942-1.596 1.414-0.388 0.354-0.78 0.706-1.148 1.060-0.588 0.568-1.138 1.134-1.672 1.7-0.256 0.27-0.524 0.542-0.768 0.812-0.026 0.030-0.048 0.060-0.074 0.088h251.908c8.286 0 15.004 6.718 15.004 15.004 0 8.288-6.718 15.004-15.004 15.004h-258.944v38.376c0 7.288 4.902 13.756 11.922 15.728 40.954 11.512 102.682 25.224 164.316 25.224 0.056 0 0.122 0 0.178 0 71.838-0.030 145.448-16.1 182.93-25.68 7.242-1.85 12.3-8.36 12.3-15.83v-37.816h-40.24c-8.286 0-15.004-6.718-15.004-15.004 0-8.29 6.718-15.006 15.006-15.006h33.212c-0.026-0.030-0.048-0.060-0.074-0.088-0.244-0.27-0.512-0.542-0.768-0.812-0.536-0.566-1.084-1.132-1.672-1.7-0.368-0.354-0.76-0.706-1.148-1.060-0.516-0.472-1.042-0.942-1.596-1.414-0.52-0.442-1.062-0.882-1.614-1.322-0.46-0.368-0.926-0.736-1.408-1.104-0.7-0.532-1.422-1.064-2.166-1.592-0.36-0.256-0.726-0.514-1.096-0.77-0.912-0.628-1.846-1.254-2.818-1.876-0.208-0.134-0.42-0.266-0.632-0.4-6.236-3.924-13.666-7.71-22.158-11.222-0.178-0.074-0.338-0.178-0.512-0.258-32.148-13.252-80.458-23.266-141.13-23.266s-108.982 10.014-141.13 23.266c-0.174 0.080-0.334 0.184-0.512 0.258-8.492 3.512-15.922 7.298-22.158 11.222zM349.618 663.664v-29.232c-8.25 4.276-16.598 6.576-23.442 7.806v34.868c6.436-4.574 14.176-9.090 23.442-13.442zM674.38 663.666c9.266 4.35 17.004 8.866 23.442 13.44v-34.864c-6.844-1.23-15.192-3.532-23.442-7.808v29.232zM402.456 425.634c-30.73 26.458-48.88 66.11-49.796 108.788-0.174 8.158-6.84 14.682-15 14.682h-11.938c-9.128 0-16.556 7.426-16.556 16.556v34.976c0 5.034 2.27 9.698 6.088 12.806 5.29-0.468 15.166-2.054 23.542-7.374 0.084-0.054 0.166-0.106 0.25-0.16 1.182-0.764 2.33-1.606 3.432-2.528 0.128-0.106 0.256-0.214 0.382-0.324 0.536-0.462 1.062-0.938 1.572-1.442 0.446-0.44 0.912-0.85 1.388-1.242 0.14-0.116 0.282-0.224 0.424-0.336 0.36-0.282 0.726-0.55 1.1-0.804 0.148-0.1 0.292-0.202 0.442-0.298 0.508-0.328 1.022-0.638 1.552-0.916 0.002-0.002 0.006-0.004 0.008-0.006 0.538-0.282 1.088-0.534 1.646-0.766 0.154-0.064 0.31-0.122 0.466-0.182 0.424-0.166 0.85-0.316 1.282-0.452 0.162-0.052 0.322-0.104 0.486-0.15 0.566-0.164 1.136-0.308 1.712-0.422 0.010-0.002 0.018-0.004 0.028-0.006 0.592-0.116 1.19-0.198 1.79-0.262 0.162-0.018 0.324-0.028 0.484-0.040 0.454-0.038 0.91-0.060 1.368-0.066 0.104-0.002 0.206-0.014 0.308-0.014 0.066 0 0.134 0.010 0.2 0.010 0.59 0.006 1.182 0.030 1.774 0.086 0.016 0.002 0.032 0.002 0.046 0.002 0.606 0.060 1.212 0.154 1.816 0.27 0.17 0.032 0.34 0.072 0.51 0.108 0.448 0.098 0.894 0.21 1.34 0.336 0.176 0.050 0.352 0.098 0.528 0.154 0.592 0.188 1.18 0.392 1.762 0.634 7.736 3.23 12.734 10.726 12.734 19.102v35.884c38.636-12.168 86.142-18.46 132.372-18.46s93.736 6.292 132.372 18.46v-35.884c0-8.376 4.998-15.874 12.734-19.102 0.584-0.244 1.176-0.45 1.77-0.638 0.168-0.052 0.336-0.098 0.504-0.148 0.456-0.13 0.914-0.246 1.374-0.344 0.16-0.034 0.32-0.072 0.482-0.102 1.214-0.232 2.438-0.35 3.658-0.36 0.062 0 0.126-0.010 0.188-0.010 0.096 0 0.192 0.012 0.29 0.014 0.47 0.006 0.938 0.030 1.406 0.068 0.152 0.012 0.304 0.022 0.456 0.038 1.2 0.126 2.386 0.358 3.546 0.694 0.158 0.046 0.314 0.096 0.472 0.146 0.436 0.136 0.866 0.29 1.294 0.456 0.154 0.060 0.31 0.118 0.462 0.182 0.558 0.232 1.11 0.484 1.648 0.766 0.004 0.002 0.008 0.004 0.012 0.006 0.528 0.278 1.042 0.588 1.548 0.914 0.15 0.096 0.296 0.2 0.446 0.3 0.372 0.254 0.738 0.522 1.096 0.802 0.144 0.112 0.288 0.222 0.428 0.338 0.476 0.394 0.942 0.802 1.386 1.242 0.504 0.5 1.028 0.97 1.558 1.428 0.138 0.12 0.278 0.238 0.418 0.356 0.492 0.412 0.99 0.81 1.5 1.188 0.048 0.036 0.092 0.072 0.14 0.108 0.552 0.406 1.114 0.786 1.682 1.156 0.152 0.1 0.306 0.196 0.46 0.294 0.506 0.318 1.018 0.626 1.532 0.918 0.074 0.042 0.148 0.088 0.224 0.13 0.586 0.326 1.176 0.634 1.77 0.928 0.148 0.074 0.296 0.144 0.444 0.216 0.532 0.256 1.066 0.504 1.6 0.736 0.074 0.032 0.146 0.066 0.22 0.098 0.616 0.264 1.232 0.51 1.846 0.744 0.11 0.042 0.218 0.082 0.328 0.122 0.584 0.218 1.166 0.424 1.746 0.616 0.032 0.010 0.064 0.022 0.096 0.032 0.65 0.214 1.296 0.412 1.934 0.596 0.024 0.006 0.048 0.014 0.072 0.020 4.57 1.312 8.758 1.89 11.606 2.144 3.82-3.11 6.090-7.772 6.090-12.808v-34.976c0-9.13-7.428-16.556-16.556-16.556h-11.938c-8.162 0-14.826-6.524-15-14.682-0.916-42.678-19.066-82.33-49.796-108.788-31.866-27.438-68.718-41.6-109.542-42.092-40.828 0.49-77.678 14.65-109.548 42.090zM437.502 221.992c-2.402-1.016-5.132-0.246-6.644 1.868l-60.508 84.672 15.738 2.924c0.856 0.156 1.746-0.048 2.444-0.57l3.926-2.934c0.022-0.016 0.042-0.032 0.064-0.048l89.586-66.962-44.606-18.95zM475.264-33.99l27.374 196.716h18.72l27.374-196.716h-73.468zM857.608-33.99h-60.016v121.666c0 8.288-6.718 15.004-15.004 15.004s-15.004-6.716-15.004-15.004v-121.666h-188.55l-28.818 207.076 19.98 23.228 4.57-1.942c4.564-1.938 9.314-2.87 13.996-2.87 11.158 0 21.924 5.298 28.794 14.914l68.654 96.072 86.522-16.072c4.514-1.354 8.92-2.936 13.232-4.69-15.868-17.728-17.046-44.91-1.638-64.020l16.33-20.252c8.294-10.286 20.096-16.726 33.234-18.134 1.796-0.194 3.588-0.29 5.37-0.29 11.134 0 21.852 3.742 30.682 10.762 4.176-13.652 6.344-27.942 6.344-42.566v-162.536h0.002c0.002-10.3-8.38-18.68-18.68-18.68zM716.816 102.68h-79.018c-13.516 0-24.512-10.996-24.512-24.512v-42.098c0-13.516 10.996-24.512 24.512-24.512h79.018c13.516 0 24.51 10.996 24.51 24.512v42.098c0 13.518-10.996 24.512-24.51 24.512zM643.292 41.57v31.102h68.022v-31.102h-68.022zM386.202 102.682h-79.018c-13.516 0-24.51-10.996-24.51-24.512v-42.098c0-13.516 10.996-24.512 24.51-24.512h79.018c13.516 0 24.512 10.996 24.512 24.512v42.098c0.002 13.516-10.996 24.512-24.512 24.512zM380.706 41.57h-68.022v31.102h68.022v-31.102z" />
<glyph unicode="&#xe924;" glyph-name="pool" d="M17.746 416.174c36.063 0 53.141-10.753 72.914-23.213 21.341-13.439 45.525-28.672 91.838-28.672s70.488 15.233 91.83 28.672c19.773 12.46 36.851 23.213 72.914 23.213s53.141-10.753 72.914-23.213c21.341-13.439 45.525-28.672 91.838-28.672s70.497 15.233 91.83 28.672c19.773 12.46 36.851 23.213 72.923 23.213 36.063 0 53.141-10.753 72.923-23.213 21.333-13.439 45.516-28.672 91.83-28.672 46.305 0 70.497 15.233 91.83 28.672 19.782 12.46 36.86 23.213 72.923 23.213 9.8 0 17.746 7.946 17.746 17.746s-7.946 17.746-17.746 17.746c-46.313 0-70.497-15.233-91.83-28.672-19.773-12.46-36.86-23.213-72.923-23.213-32.12 0-48.999 8.535-66.32 19.21 0.459 1.473 0.728 3.007 0.797 4.549v262.578c-0.061 24.253 19.556 43.948 43.809 43.991 9.8-0.009 17.754 7.928 17.772 17.728 0.009 9.8-7.928 17.754-17.728 17.763-43.853-0.052-79.37-35.63-79.352-79.482v-22.762h-122v22.762c0.165 24.339 19.946 43.991 44.294 43.991 9.8 0.026 17.728 7.989 17.711 17.789-0.026 9.8-7.989 17.728-17.789 17.702-43.922-0.026-79.552-35.56-79.707-79.482v-259.97c0.095-1.265 0.338-2.513 0.702-3.726-19.392-12.2-36.349-22.641-71.857-22.641-36.063 0-53.063 10.762-72.845 23.213-20.934 13.196-44.606 28.109-89.273 28.654-12.547 11.091-22.528 20.406-33.048 30.162-5.104 4.748-10.476 9.765-16.48 15.276 13.508-11.524 30.673-17.849 48.428-17.841 8.492 0.009 16.922 1.421 24.946 4.176 19.019 6.603 34.599 20.553 43.255 38.732 8.795 18.014 9.887 38.827 3.033 57.673-8.717 25.665-30.561 44.667-57.188 49.745s-53.93-4.558-71.476-25.223c-17.546-20.657-22.632-49.164-13.3-74.613 3.813-10.9 10.060-20.787 18.257-28.914-7.59 6.949-16.195 14.721-26.436 23.785-27.303 24.149-54.441 48.549-79.699 71.32-11.593 10.45-24.799 14.158-39.252 11.004-16.004-3.483-32.016-6.932-48.046-10.328-18.265-3.899-37.155-7.928-55.732-12.009-23.568-5.19-38.602-28.351-33.749-51.997 4.436-23.135 26.67-38.385 49.857-34.191 24.79 4.636 50.178 10.068 75.427 16.143 1.828 0.494 3.691 0.806 5.571 0.927 0.468-0.477 0.884-0.988 1.265-1.534 4.393-6.065 9.159-11.853 14.262-17.347 0.858-0.918 1.256-2.166 1.109-3.414-0.121-1.274-0.797-2.426-1.846-3.154l-74.301-52.639c-16.576 8.024-37.155 14.28-66.823 14.28-9.8 0-17.746-7.946-17.746-17.746s7.946-17.746 17.746-17.746zM740.476 516.954h-122v33.273h122zM618.476 441.441v40.023h122v-42.458c-15.527 7.235-36.219 12.659-63.86 12.659-19.86 0.321-39.589-3.154-58.141-10.224zM740.476 627.864v-42.146h-122v42.146zM312.765 572.054c4.601 9.479 12.807 16.714 22.788 20.094 21.237 7.417 43.142-3.128 50.958-24.504 3.544-9.869 2.929-20.761-1.707-30.171-6.923-14.592-21.983-23.551-38.108-22.65-16.125 0.892-30.102 11.464-35.361 26.731-3.622 9.947-3.111 20.934 1.43 30.5zM179.379 461.075c9.323 6.603 15.371 16.896 16.61 28.256 1.23 11.368-2.469 22.71-10.155 31.167-4.124 4.428-7.989 9.089-11.559 13.976-15.25 21.497-36.184 16.463-44.069 14.566-24.669-5.927-49.45-11.23-73.659-15.753-3.977-0.555-7.703 2.088-8.483 6.031-0.607 2.279-0.251 4.696 0.979 6.707 1.23 2.002 3.232 3.414 5.537 3.899 18.473 4.055 37.311 8.084 55.524 11.966 16.073 3.431 32.138 6.889 48.194 10.363 2.4 0.529 4.254 0.624 7.928-2.686 25.327-22.832 52.535-47.301 79.941-71.545 20.293-17.953 34.139-30.838 46.365-42.198 3.535-3.284 7.018-6.533 10.554-9.8-20.059-5.649-34.417-14.687-47.674-23.040-19.773-12.46-36.851-23.213-72.906-23.213-30.795 0-47.743 7.85-64.353 17.901zM17.746 299.425c36.063 0 53.141-10.762 72.914-23.213 21.341-13.448 45.525-28.68 91.838-28.68s70.488 15.233 91.83 28.68c19.773 12.451 36.851 23.213 72.914 23.213s53.141-10.762 72.914-23.213c21.341-13.448 45.525-28.68 91.838-28.68s70.497 15.233 91.83 28.68c19.773 12.451 36.851 23.213 72.923 23.213 36.063 0 53.141-10.762 72.923-23.213 21.333-13.448 45.516-28.68 91.83-28.68 46.305 0 70.497 15.233 91.83 28.68 19.782 12.451 36.86 23.213 72.923 23.213 9.8 0 17.746 7.946 17.746 17.746s-7.946 17.746-17.746 17.746c-46.313 0-70.497-15.241-91.83-28.68-19.782-12.451-36.869-23.213-72.932-23.213s-53.141 10.762-72.923 23.204c-21.333 13.439-45.516 28.68-91.83 28.68-46.305 0-70.497-15.241-91.83-28.68-19.782-12.451-36.86-23.213-72.923-23.213s-53.15 10.77-72.923 23.213c-21.333 13.439-45.516 28.68-91.83 28.68s-70.497-15.241-91.838-28.68c-19.773-12.46-36.843-23.213-72.906-23.213s-53.124 10.77-72.914 23.213c-21.333 13.439-45.516 28.68-91.83 28.68-9.8 0-17.746-7.946-17.746-17.746 0-9.809 7.946-17.746 17.746-17.746zM17.746 182.675c36.063 0 53.141-10.762 72.914-23.213 21.341-13.448 45.525-28.68 91.838-28.68s70.488 15.233 91.83 28.68c19.773 12.451 36.851 23.213 72.914 23.213s53.141-10.762 72.914-23.213c21.341-13.448 45.525-28.68 91.838-28.68s70.497 15.233 91.83 28.68c19.773 12.451 36.851 23.213 72.923 23.213 36.063 0 53.141-10.762 72.923-23.213 21.333-13.448 45.516-28.68 91.83-28.68 46.305 0 70.497 15.233 91.83 28.68 19.782 12.451 36.86 23.213 72.923 23.213 9.8 0 17.746 7.946 17.746 17.746s-7.946 17.746-17.746 17.746c-46.313 0-70.497-15.233-91.83-28.68-19.782-12.46-36.869-23.23-72.932-23.23s-53.141 10.762-72.923 23.222c-21.333 13.439-45.516 28.672-91.83 28.672-46.305 0-70.497-15.233-91.83-28.672-19.782-12.46-36.86-23.222-72.923-23.222s-53.141 10.762-72.914 23.222c-21.341 13.448-45.525 28.689-91.838 28.689s-70.497-15.233-91.83-28.68c-19.773-12.451-36.851-23.213-72.914-23.213s-53.141 10.762-72.914 23.213c-21.333 13.439-45.516 28.68-91.83 28.68-9.8 0-17.746-7.946-17.746-17.746s7.946-17.746 17.746-17.746z" />
<glyph unicode="&#xe925;" glyph-name="comment" d="M859.518 890.998h-696.035c-72.773 0-131.982-59.197-131.982-131.982v-425.959c0-72.621 58.951-131.725 131.514-131.982v-193.295l277.787 193.295h418.717c72.773 0 131.982 59.209 131.982 131.982v425.959c0 72.785-59.209 131.982-131.982 131.982zM935.25 333.057c0-41.754-33.973-75.732-75.732-75.732h-436.365l-203.889-141.879v141.879h-55.781c-41.76 0-75.732 33.979-75.732 75.732v425.959c0 41.766 33.973 75.732 75.732 75.732h696.035c41.76 0 75.732-33.967 75.732-75.732zM288.439 692.242h446.121v-56.25h-446.121zM288.439 572.242h446.121v-56.25h-446.121zM288.439 452.242h446.121v-56.25h-446.121z" />
<glyph unicode="&#xe926;" glyph-name="dashboard" d="M394.664 618.664h-320c-41.172 0-74.664 33.492-74.664 74.672v192c0 41.172 33.492 74.664 74.664 74.664h320c41.18 0 74.672-33.492 74.672-74.664v-192c0-41.18-33.492-74.672-74.672-74.672zM74.664 896c-5.883 0-10.664-4.781-10.664-10.664v-192c0-5.891 4.781-10.672 10.664-10.672h320c5.891 0 10.672 4.781 10.672 10.672v192c0 5.883-4.781 10.664-10.672 10.664zM394.664-64h-320c-41.172 0-74.664 33.492-74.664 74.664v448c0 41.18 33.492 74.672 74.664 74.672h320c41.18 0 74.672-33.492 74.672-74.672v-448c0-41.172-33.492-74.664-74.672-74.664zM74.664 469.336c-5.883 0-10.664-4.781-10.664-10.672v-448c0-5.883 4.781-10.664 10.664-10.664h320c5.891 0 10.672 4.781 10.672 10.664v448c0 5.891-4.781 10.672-10.672 10.672zM949.336-64h-320c-41.18 0-74.672 33.492-74.672 74.664v192c0 41.18 33.492 74.672 74.672 74.672h320c41.172 0 74.664-33.492 74.664-74.672v-192c0-41.172-33.492-74.664-74.664-74.664zM629.336 213.336c-5.891 0-10.672-4.781-10.672-10.672v-192c0-5.883 4.781-10.664 10.672-10.664h320c5.883 0 10.664 4.781 10.664 10.664v192c0 5.891-4.781 10.672-10.664 10.672zM949.336 362.664h-320c-41.18 0-74.672 33.492-74.672 74.672v448c0 41.172 33.492 74.664 74.672 74.664h320c41.172 0 74.664-33.492 74.664-74.664v-448c0-41.18-33.492-74.672-74.664-74.672zM629.336 896c-5.891 0-10.672-4.781-10.672-10.664v-448c0-5.891 4.781-10.672 10.672-10.672h320c5.883 0 10.664 4.781 10.664 10.672v448c0 5.883-4.781 10.664-10.664 10.664z" />
<glyph unicode="&#xe927;" glyph-name="digital-marketing" d="M880.073 960h-44.026c-19.353 0-19.353-30.004 0-30.004h44.026c45.467 0 82.458-36.857 82.458-82.16v-347.194c0-45.305-36.989-82.162-82.458-82.162h-49.933c-3.294 0-6.497-1.084-9.115-3.086l-91.625-70.086v58.17c0 8.285-6.715 15.002-15.002 15.002h-182.586c-14.952 0-29.322 3.947-41.996 11.45v168.408c0 31.545-16.066 59.415-40.464 75.903v173.595c0 45.303 36.991 82.16 82.46 82.16h210.222c19.351 0 19.351 30.004 0 30.004h-210.222c-62.013 0-112.464-50.317-112.464-112.164v-160.409c-6.869 1.64-14.026 2.534-21.391 2.534h-274.632c-50.649 0-91.857-41.102-91.857-91.623v-32.395c0-19.351 30.004-19.351 30.004 0v32.395c0 33.977 27.746 61.619 61.853 61.619h274.634c34.107 0 61.855-27.642 61.855-61.619v-174.381c-0.18-1.324-0.172-2.658 0-3.973v-95.438c0-1.886-0.114-3.765-0.284-5.633h-30.938c-34.091 0-62.511-24.606-68.404-56.944-1.364-0.514-2.674-1.232-3.889-2.168l-67.1-51.809v39.934c0 8.285-6.715 15.002-15.002 15.002h-150.872c-34.107 0-61.853 27.642-61.853 61.619v151.384c0 19.351-30.004 19.351-30.004 0v-151.386c0-50.521 41.208-91.623 91.857-91.623h135.872v-55.468c0-12.034 14.612-19.253 24.171-11.876l75.681 58.434v-168.774c0-38.256 31.199-69.376 69.544-69.376h92.063v-35.007c0-12.030 14.612-19.257 24.169-11.876l60.721 46.883h17.939c38.346 0 69.544 31.122 69.544 69.376v26.636c0 19.351-30.004 19.351-30.004 0v-26.636c0-21.711-17.737-39.372-39.54-39.372h-23.057c-3.318 0-6.543-1.1-9.167-3.126l-40.602-31.347v19.473c0 8.285-6.715 15.002-15.002 15.002h-107.065c-21.801 0-39.54 17.663-39.54 39.372v194.296c0 21.711 17.737 39.372 39.54 39.372h194.894c21.801 0 39.54-17.663 39.54-39.372v-73.649c0-19.351 30.004-19.351 30.004 0v73.647c0 38.256-31.199 69.376-69.544 69.376h-133.839c0.114 1.874 0.172 77.647 0.172 77.647 13.228-5.319 27.41-8.083 41.996-8.083h167.584v-73.531c0-12.004 14.55-19.231 24.117-11.916l111.708 85.446h44.852c62.011 0 112.462 50.317 112.462 112.166v347.196c-0.002 61.847-50.453 112.164-112.464 112.164zM743.427 849.16c-19.049 4.863-38.46-10.187-38.46-29.87 0-21.505-7.837-42.23-22.057-58.346l-41.334-46.773c-2.676 4.107-7.301 6.825-12.568 6.825h-80.692c-8.287 0-15.002-6.717-15.002-15.002v-181.556c0-8.285 6.715-15.002 15.002-15.002h80.692c6.063 0 11.272 3.603 13.638 8.775 16.336-9.981 35.267-15.378 54.528-15.378h142.605c21.791 0 39.768 18.909 38.746 40.644-0.454 9.625 0.042 138.87 0.042 141.74 0 21.387-17.401 38.79-38.744 38.79l-74.157 0.222 3.070 7.271c14.032 33.231 11.722 71.764-6.173 103.083-4.177 7.317-10.976 12.492-19.137 14.578-8.165 2.084 8.161-2.086 0 0-19.047 4.863 8.161-2.086 0 0zM614.007 539.439h-50.687v151.552h50.687zM839.779 694.004c4.845 0 8.785-3.941 8.785-8.785 0-2.854-0.030-10.602-0.070-21.105-0.222-57.992-0.37-112.916 0.058-122.046 0.156-3.294-1.446-5.491-2.414-6.507-1.676-1.756-3.935-2.722-6.359-2.722h-142.605c-16.998 0-33.635 5.891-46.849 16.586l-6.315 5.113v117.079l61.391 69.468c19.069 21.611 29.57 49.385 29.57 78.207 0 0.848 1.158 1.068 1.542 0.408 13.286-23.249 14.998-51.855 4.583-76.525l-11.84-28.042c-1.954-4.627-1.462-9.921 1.304-14.11 2.77-4.189 7.451-6.713 12.47-6.729zM159.925 438.929c-8.287 0-15.002-6.717-15.002-15.002s6.715-15.002 15.002-15.002h44.222l-8.261-49.965c-1.352-8.173 4.181-15.896 12.354-17.248 0.83-0.138 1.652-0.204 2.464-0.204 7.209 0 13.568 5.211 14.784 12.558l9.069 54.858h36.191l-8.261-49.965c-1.352-8.173 4.181-15.896 12.354-17.248 0.83-0.138 1.652-0.204 2.464-0.204 7.209 0 13.568 5.211 14.784 12.558l9.069 54.858h60.195c8.287 0 15.002 6.717 15.002 15.002s-6.715 15.002-15.002 15.002h-55.234l6.051 36.597h49.183c8.287 0 15.002 6.717 15.002 15.002s-6.715 15.002-15.002 15.002h-44.222l8.261 49.965c1.352 8.173-4.181 15.896-12.354 17.248-8.183 1.356-15.896-4.181-17.248-12.354l-9.069-54.858h-36.191l8.261 49.965c1.352 8.173-4.181 15.896-12.354 17.248-8.193 1.356-15.894-4.181-17.248-12.354l-9.069-54.858h-60.195c-8.287 0-15.002-6.717-15.002-15.002s6.715-15.002 15.002-15.002h55.234l-6.051-36.597zM245.571 475.526h36.191l-6.051-36.597h-36.191zM525.856 211.5c-12.114 9.973-28.23 13.908-44.396 9.977-20.717-5.031-41.622-24.398-41.622-56.32 0-19.869 7.251-37.115 22.167-52.726 12.184-12.752 29.766-24.878 57.006-39.32 2.198-1.166 4.613-1.748 7.027-1.748s4.829 0.582 7.027 1.748c47.523 25.194 79.171 50.487 79.171 92.045 0 32.097-21.647 51.265-43.102 56.024-16.118 3.577-31.745-0.22-43.278-9.681zM582.23 165.157c0-22.415-14.868-38.992-56.194-61.741-41.326 22.751-56.196 39.328-56.196 61.741 0 16.678 9.657 24.968 18.697 27.164 1.666 0.404 3.45 0.632 5.285 0.632 6.799 0 14.274-3.14 18.883-12.076 2.626-5.085 7.935-8.237 13.63-8.119 5.719 0.114 10.878 3.471 13.296 8.655 4.855 10.406 15.064 12.236 23.001 10.474 9.477-2.098 19.599-10.225 19.599-26.73z" />
<glyph unicode="&#xe928;" glyph-name="edit" d="M945.112 316.73c-14.086 0-25.503-11.417-25.503-25.503v-226.438c-0.050-42.239-34.27-76.469-76.509-76.509h-715.586c-42.239 0.040-76.459 34.27-76.509 76.509v664.58c0.050 42.229 34.27 76.459 76.509 76.509h226.438c14.086 0 25.503 11.417 25.503 25.503 0 14.076-11.417 25.503-25.503 25.503h-226.438c-70.392-0.080-127.435-57.123-127.515-127.515v-664.59c0.080-70.392 57.123-127.435 127.515-127.515h715.586c70.392 0.080 127.435 57.123 127.515 127.515v226.448c0 14.086-11.417 25.503-25.503 25.503zM960.513 922.503c-44.819 44.819-117.483 44.819-162.302 0l-454.988-454.988c-3.118-3.118-5.37-6.983-6.545-11.227l-59.832-216.008c-2.461-8.856 0.040-18.34 6.535-24.845 6.505-6.495 15.989-8.996 24.845-6.545l216.008 59.842c4.244 1.176 8.109 3.427 11.227 6.545l454.978 454.998c44.75 44.849 44.75 117.453 0 162.302zM398.792 450.939l372.372 372.382 120.093-120.093-372.382-372.382zM374.803 402.802l95.945-95.955-132.715-36.77zM954.376 766.338l-27.047-27.047-120.103 120.103 27.057 27.047c24.895 24.895 65.262 24.895 90.157 0l29.936-29.926c24.855-24.925 24.855-65.262 0-90.177z" />
<glyph unicode="&#xe929;" glyph-name="hide" d="M848.965 607.045c-27.361 23.298-56.291 44.696-86.576 64.051l182.709 182.703c7.911 7.905 7.911 20.722 0 28.627-7.905 7.905-20.715 7.899-28.62 0l-190.032-190.045c-9.323 5.108-18.633 9.892-27.93 14.367-63.595 30.557-126.754 46.044-187.728 46.044s-124.14-15.494-187.722-46.044c-50.215-24.127-100.836-57.677-150.456-99.703-84.076-71.209-135.773-141.5-137.931-144.456-5.19-7.108-5.19-16.766 0-23.873 2.158-2.956 53.855-73.247 137.931-144.456 28.291-24.108 58.272-46.171 89.703-66.019l-180.741-180.728c-7.905-7.905-7.905-20.722 0-28.62 7.905-7.905 20.715-7.905 28.627 0l188.26 188.266c8.203-4.437 16.405-8.633 24.601-12.589 63.589-30.563 126.747-46.044 187.722-46.044s124.14 15.487 187.722 46.044c50.215 24.127 100.836 57.677 150.462 99.697 84.070 71.222 135.766 141.5 137.924 144.456 5.196 7.114 5.196 16.766 0 23.886-2.165 2.937-53.855 73.228-137.924 144.437zM199.456 324.557c-44.817 38.076-85.95 80.291-122.848 126.089 42.127 52.671 222.608 261.672 434.172 261.672 66.563 0 129.899-21 185.614-49.981l-46.285-46.291c-85.874 72.443-212.912 67.070-292.349-12.367-79.443-79.443-84.817-206.482-12.38-292.355l-53.563-53.563c-32.487 19.823-63.367 42.158-92.361 66.798zM374.109 340.063c-56.69 69.924-51.405 171.368 12.247 235.020 63.646 63.646 165.102 68.931 235.013 12.241zM649.704 558.405c54.361-69.981 48.127-169.482-14.532-232.14s-162.159-68.886-232.134-14.538zM510.78 189.006c-65.228 0-127.342 20.165-182.235 48.247l45.69 45.69c86-70.12 211.108-63.779 289.57 14.684s84.81 203.57 14.69 289.57l54.437 54.437c31.304-19.361 61.12-41.044 89.165-64.88 44.823-38.076 85.956-80.291 122.848-126.089-42.114-52.671-222.596-261.659-434.166-261.659z" />
<glyph unicode="&#xe92a;" glyph-name="password" d="M461.584 251.374l-13.458-121.020c-0.666-6.020 1.27-12.062 5.312-16.584 4.042-4.52 9.834-7.104 15.896-7.104h85.334c6.062 0 11.854 2.584 15.896 7.104s5.98 10.562 5.312 16.584l-13.458 121.020c21.854 15.896 34.916 41.042 34.916 68.626 0 47.062-38.27 85.334-85.334 85.334s-85.334-38.272-85.334-85.334c0-27.584 13.064-52.73 34.918-68.626zM512 362.666c23.52 0 42.666-19.146 42.666-42.666 0-16.354-9.292-31-24.25-38.25-8.146-3.958-12.916-12.584-11.916-21.562l12.334-110.854h-37.666l12.334 110.854c1 8.98-3.77 17.604-11.916 21.562-14.958 7.25-24.25 21.896-24.25 38.25-0.002 23.52 19.144 42.666 42.664 42.666zM874.666 576h-64v85.334c0 164.686-133.978 298.666-298.666 298.666s-298.666-133.98-298.666-298.666v-85.334h-64c-11.792 0-21.334-9.542-21.334-21.334v-533.334c0-47.062 38.27-85.332 85.334-85.332h597.334c47.062 0 85.332 38.27 85.332 85.334v533.332c0 11.792-9.542 21.334-21.334 21.334zM256 661.334c0 141.166 114.834 256 256 256s256-114.834 256-256v-85.334h-42.666v85.334c0 117.626-95.708 213.334-213.334 213.334s-213.334-95.71-213.334-213.334v-85.334h-42.666v85.334zM682.666 661.334v-85.334h-341.332v85.334c0 94.104 76.562 170.666 170.666 170.666s170.666-76.562 170.666-170.666zM853.334 21.334c0-23.52-19.146-42.666-42.666-42.666h-597.334c-23.52 0-42.666 19.146-42.666 42.666v512h682.666v-512z" />
<glyph unicode="&#xe92b;" glyph-name="phone" d="M941.835 287.861c-62.693 0-124.251 9.805-182.584 29.083-29.083 9.917-62.195 2.221-81.168-17.112l-115.139-86.917c-133.528 71.277-215.779 153.501-286.083 286.027l84.36 112.139c21.917 21.888 29.779 53.861 20.36 83.861-19.36 58.64-29.195 120.168-29.195 182.888 0.003 45.309-36.859 82.171-82.165 82.171h-188.056c-45.304 0-82.165-36.861-82.165-82.165 0-519.336 422.501-941.835 941.835-941.835 45.307 0 82.168 36.861 82.168 82.168v187.528c-0.003 45.304-36.864 82.165-82.168 82.165zM967.112 18.165c0-13.944-11.333-25.277-25.277-25.277-487.973 0-884.944 396.973-884.944 884.944 0 13.944 11.333 25.277 25.277 25.277h188.056c13.944 0 25.277-11.333 25.277-25.277 0-68.805 10.805-136.333 31.944-200.307 2.944-9.445 0.555-19.221-9-29.168l-97.779-129.496c-6.555-8.693-7.584-20.333-2.667-30.027 79.805-156.861 176.779-253.835 334.749-334.779 9.611-5.027 21.389-3.973 30.112 2.611l132.472 100.36c6.693 6.693 16.723 9.083 25.779 6 64.416-21.277 131.944-32.056 200.723-32.056 13.944 0 25.277-11.333 25.277-25.277v-187.528z" />
<glyph unicode="&#xe92c;" glyph-name="power-off" d="M511.542 874.666c-23.388-0.237-42.257-19.336-42.257-42.861 0-0.176 0.001-0.351 0.003-0.526v0.027-342.958c0.007-23.688 19.127-42.889 42.712-42.889s42.706 19.201 42.712 42.888v342.959c0.002 0.149 0.003 0.325 0.003 0.501 0 23.673-19.106 42.863-42.675 42.863-0.175 0-0.35-0.001-0.525-0.003h0.027zM760.483 788.697c-0.366 0.011-0.797 0.018-1.23 0.018-1.034 0-2.059-0.037-3.074-0.109l0.136 0.008c-21.964-1.929-39.065-20.313-39.065-42.71 0-13.222 5.96-25.045 15.329-32.908l0.068-0.055c73.916-63.046 120.678-156.885 120.678-262.26 0-190.269-152.111-343.627-341.117-343.627s-341.45 153.358-341.45 343.627c0 104.766 46.169 197.966 119.345 261.004 9.187 7.911 14.972 19.58 14.972 32.606 0 23.676-19.109 42.869-42.681 42.869-10.604 0-20.305-3.884-27.77-10.314l0.057 0.048c-91.347-78.692-149.348-195.984-149.348-326.214 0-236.518 191.671-429.345 426.875-429.345s426.459 192.826 426.458 429.345c0 130.99-58.574 248.764-150.848 327.469-7.283 6.402-16.832 10.367-27.299 10.546l-0.037 0.001z" />
<glyph unicode="&#xe92d;" glyph-name="shopping-basket" d="M512 448.023c11.039 0 20 8.961 20 20s-8.961 20-20 20-20-8.961-20-20 8.961-20 20-20zM944 608.023h-118.273l-181.938 250.305c-16.344 28.008-52.344 37.977-80.938 22.141-28.984-16.102-39.406-52.609-23.297-81.602 0.461-0.82 0.969-1.609 1.539-2.359l142.703-188.484h-343.594l142.703 188.484c0.563 0.75 1.078 1.539 1.539 2.359 16.070 28.922 5.766 65.461-23.32 81.617-28.531 15.805-64.531 5.844-80.906-22.141l-181.945-250.32h-118.273c-44.109 0-80-35.891-80-80 0-34.789 22.578-65.078 54.383-75.797 3.391-2.625 7.625-4.203 12.234-4.203 0.922 0 1.789-0.055 2.695-0.18 8.609-1.156 15.43-7.688 16.992-16.234l68.039-374.328c5.195-28.539 30.023-49.258 59.039-49.258h597.234c29.016 0 53.844 20.719 59.039 49.266l68.039 374.313c1.563 8.555 8.391 15.086 17.031 16.242 0.875 0.125 1.742 0.18 2.656 0.18 4.641 0 8.906 1.594 12.297 4.25 31.828 10.789 54.32 41.023 54.32 75.75 0 44.109-35.891 80-80 80zM573.977 819.344c-4.57 9.461-1.023 20.984 8.273 26.141 9.68 5.367 21.883 1.906 27.219-7.711 0.391-0.719 0.836-1.406 1.313-2.063l165.492-227.688h-42.313zM413.219 835.703c0.477 0.656 0.906 1.336 1.305 2.039 5.352 9.625 17.563 13.094 27.203 7.758 9.313-5.172 12.875-16.68 8.297-26.156l-159.984-211.32h-42.313zM944 488.023h-352c-11.047 0-20-8.953-20-20s8.953-19.797 20-19.797h308.797c-1.047-2.984-1.875-6.078-2.453-9.266l-68.047-374.516c-1.727-9.516-10.008-16.422-19.68-16.422h-597.234c-9.68 0-17.953 6.906-19.688 16.414l-68.039 374.328c-0.578 3.188-1.406 6.281-2.453 9.258h308.797c11.047 0 20 8.953 20 20s-8.953 20-20 20h-352c-22.242 0-40 18.125-40 40 0 22.055 17.945 40 40 40h864c22.055 0 40-17.945 40-40 0-22.211-18.172-40-40-40zM512 388.023c-33.086 0-60-26.914-60-60v-160c0-33.086 26.914-60 60-60s60 26.914 60 60v160c0 33.148-26.852 60-60 60zM532 168.023c0-11.031-8.969-20-20-20s-20 8.969-20 20v160c0 11.031 8.969 20 20 20 11.039 0 20-8.961 20-20zM712 108.023c33.086 0 60 26.914 60 60v160c0 33.148-26.852 60-60 60-33.086 0-60-26.914-60-60v-160c0-33.086 26.914-60 60-60zM692 328.023c0 11.031 8.969 20 20 20 11.039 0 20-8.961 20-20v-160c0-11.031-8.969-20-20-20s-20 8.969-20 20zM312 388.023c-33.086 0-60-26.914-60-60v-160c0-33.086 26.914-60 60-60s60 26.914 60 60v160c0 33.148-26.852 60-60 60zM332 168.023c0-11.031-8.969-20-20-20s-20 8.969-20 20v160c0 11.031 8.969 20 20 20 11.039 0 20-8.953 20-20z" />
<glyph unicode="&#xe92e;" glyph-name="speaker" d="M983.302 417.402l-106.921 185.191 8.68 5.012c18.636 10.76 31.966 28.132 37.538 48.918 5.57 20.788 2.71 42.496-8.048 61.132-22.212 38.472-71.581 51.704-110.051 29.488l-8.68-5.010-106.921 185.191c-8.72 15.104-22.8 25.908-39.646 30.422-16.844 4.514-34.44 2.196-49.544-6.524s-25.91-22.798-30.424-39.644c-3.092-11.54-2.976-23.43 0.204-34.632l-102.385-115.199c-7.338-8.258-6.592-20.898 1.664-28.236 8.254-7.336 20.898-6.594 28.236 1.662l92.171 103.707 267.792-463.832-447.533-96.005-125.157 216.782 93.161 104.819c7.338 8.258 6.592 20.898-1.664 28.236-8.252 7.336-20.896 6.594-28.236-1.662l-100.603-113.193-167.305-96.593c-22.052-12.732-37.828-33.292-44.418-57.886-6.59-24.598-3.208-50.29 9.524-72.343l64.321-111.405c17.638-30.55 49.748-47.648 82.723-47.648 16.162 0 32.534 4.11 47.506 12.754l47.542 27.448 208.694-208.676c15.57-15.566 36.326-23.676 57.294-23.676 13.856 0 27.806 3.542 40.406 10.818 21.968 12.684 36.466 34.38 39.778 59.532s-5.078 49.864-23.016 67.801l-72.317 72.309 19.724 11.386c15.082 8.708 24.834 23.63 26.754 40.938s-4.32 34.004-17.122 45.808l-24.062 22.184 337.097 72.315c8.096-8.31 18.304-14.326 29.802-17.406 5.626-1.508 11.332-2.254 17.004-2.254 11.314 0 22.482 2.968 32.542 8.778 15.104 8.718 25.908 22.798 30.422 39.644 4.512 16.846 2.196 34.442-6.526 49.546zM815.818 707.494l8.68 5.010c19.37 11.188 44.226 4.524 55.412-14.848 11.184-19.37 4.522-44.226-14.848-55.41l-8.678-5.012-39.898 69.107zM219.284 175.544c-26.424-15.25-60.332-6.168-75.589 20.254l-64.321 111.405c-7.39 12.8-9.352 27.71-5.528 41.988s12.982 26.208 25.782 33.6l152.789 88.211 119.653-207.248zM593.341 11.571c-1.674-12.72-9.008-23.696-20.12-30.112-16.018-9.246-36.34-6.572-49.418 6.504l-201.112 201.096 73.413 42.384 185.595-185.577c9.072-9.072 13.316-21.572 11.642-34.294zM539.908 215.184c3.35-3.088 4.982-7.456 4.48-11.984s-3.054-8.432-7-10.71l-29.006-16.746-68.857 68.849 55.56 11.918zM951.187 378.207c-1.748-6.526-5.932-11.978-11.784-15.358-5.85-3.376-12.666-4.278-19.194-2.528-6.526 1.748-11.98 5.934-15.358 11.786l-294.406 509.932c-3.376 5.85-4.272 12.664-2.524 19.186 1.75 6.526 5.934 11.978 11.786 15.358 3.898 2.25 8.222 3.4 12.606 3.4 2.198 0 4.408-0.29 6.586-0.874 6.526-1.748 11.98-5.934 15.358-11.786l294.404-509.924c3.378-5.85 4.276-12.666 2.526-19.192zM422.263 661.198c5.26 0 10.42 2.14 14.14 5.86s5.86 8.88 5.86 14.14-2.14 10.42-5.86 14.14c-3.72 3.718-8.86 5.86-14.14 5.86-5.26 0-10.42-2.14-14.14-5.86s-5.86-8.88-5.86-14.14 2.14-10.42 5.86-14.14c3.72-3.718 8.88-5.86 14.14-5.86z" />
<glyph unicode="&#xe92f;" glyph-name="user-pencil" d="M72.338 129.954c7.334-4 181.628-97.954 359.662-97.954 17.63 0 35.658 0.818 53.86 2.4l-10.8-46.8c-0.26-1.081-0.41-2.322-0.41-3.598 0-8.837 7.163-16 16-16 1.276 0 2.517 0.149 3.706 0.431l-0.109-0.022 147.078 33.942c0.128 0.028 0.248 0.074 0.374 0.106 0.316 0.080 0.632 0.168 0.946 0.268 0.2 0.066 0.4 0.14 0.6 0.214 0.286 0.104 0.568 0.216 0.848 0.336 0.222 0.096 0.438 0.2 0.654 0.304s0.486 0.244 0.724 0.376 0.472 0.272 0.704 0.416 0.4 0.256 0.6 0.4q0.376 0.26 0.734 0.54c0.17 0.132 0.338 0.266 0.504 0.4 0.25 0.212 0.49 0.432 0.724 0.656 0.096 0.092 0.2 0.17 0.294 0.264l282.85 282.836c17.263 17.354 27.934 41.28 27.934 67.698 0 53.019-42.981 96-96 96-26.417 0-50.343-10.671-67.701-27.937l-49.394-49.392c-30.364 58.504-72.922 107.308-124 141.834-29.754 20.395-64.35 36.557-101.467 46.58l-2.375 0.546c62.871 32.407 105.12 96.879 105.12 171.219 0 106.039-85.961 192-192 192s-192-85.961-192-192c0-74.315 42.221-138.769 103.984-170.683l1.072-0.504c-66.32-17.4-126.31-54.816-174.018-109.544-69.024-79.17-107.038-189.724-107.038-311.288 0-6.027 3.333-11.276 8.256-14.004l0.082-0.042zM512 5.346l21.692 94 72.308-72.306zM818.746 402.6c11.599 11.685 27.669 18.919 45.428 18.919 35.346 0 64-28.654 64-64 0-17.76-7.234-33.83-18.916-45.425l-0.004-0.004zM796.118 379.98l90.508-90.51-248.9-248.902-90.512 90.51zM272 736c0 88.366 71.634 160 160 160s160-71.634 160-160c0-88.366-71.634-160-160-160v0c-88.324 0.104-159.897 71.676-160 159.99v0.010zM195.158 434.27c61.686 70.76 145.798 109.73 236.842 109.73 124.16 0 232.368-71.638 290.884-192l-209.6-209.6c-0.092-0.092-0.172-0.2-0.262-0.288-0.22-0.232-0.438-0.468-0.646-0.714-0.128-0.152-0.25-0.308-0.372-0.466-0.2-0.254-0.4-0.512-0.578-0.78-0.114-0.166-0.222-0.334-0.33-0.504-0.168-0.268-0.332-0.536-0.486-0.816-0.106-0.19-0.2-0.386-0.302-0.58-0.132-0.264-0.262-0.53-0.38-0.8-0.1-0.23-0.188-0.464-0.276-0.698s-0.188-0.496-0.27-0.752-0.162-0.552-0.236-0.83c-0.044-0.162-0.1-0.318-0.138-0.484l-15.554-67.4c-18.39-2.054-39.757-3.248-61.395-3.288h-0.059c-148.376 0-299.186 71.166-335.914 89.688 1.942 109.986 36.948 209.312 99.072 280.582z" />
<glyph unicode="&#xe930;" glyph-name="wallet" d="M1002.584 450.063h-55.771v163.28c-0.033 11.704-9.509 21.172-21.205 21.205h-86.304v138.894c-0.050 40.977-33.249 74.177-74.218 74.218h-278.849l-53.228 53.444c-13.021 13.146-31.129 19.963-49.584 18.662-18.463-1.309-35.436-10.603-46.478-25.455l-34.558-46.651h-175.158c-70.242-0.050-127.173-56.981-127.231-127.231v-617.072c0.058-70.242 56.989-127.173 127.231-127.231h799.652c11.696 0.041 21.172 9.509 21.205 21.205v169.642h54.703c11.704 0.041 21.172 9.509 21.205 21.205v240.679c-0.133 11.746-9.675 21.189-21.412 21.205zM765.086 805.25c8.441 0.017 16.533-3.33 22.506-9.302 5.964-5.964 9.31-14.065 9.302-22.506v-138.894h-98.397l-169.849 170.702zM370.876 868.866c3.686 4.945 9.335 8.035 15.481 8.482s12.185-1.789 16.542-6.146l235.593-236.654h-441.499zM42.41 720.429c-0.017 46.859 37.971 84.837 84.821 84.821h143.773l-126.809-170.702h-16.964c-46.85-0.008-84.837 37.971-84.821 84.821zM905.463 18.536h-778.232c-46.85-0.008-84.837 37.971-84.821 84.821v521.226c23.293-20.932 53.51-32.487 84.821-32.446h557.913c3.479-0.845 7.115-0.845 10.603 0h208.871v-142.075h-120.025c-58.546-0.017-106.001-47.472-106.026-106.026v-71.245c0.025-58.546 47.48-106.010 106.026-106.026h121.085v-148.229zM981.379 209.176h-197.001c-35.088 0.099-63.508 28.519-63.616 63.616v71.245c0.108 35.096 28.528 63.516 63.616 63.616h134.653c4.274-1.408 8.88-1.408 13.154 0h49.194zM805.583 365.242c-11.696-0.033-21.172-9.501-21.205-21.205v-71.245c0-11.713 9.501-21.205 21.205-21.205 11.713 0 21.205 9.493 21.205 21.205v71.245c0.025 5.633-2.203 11.042-6.188 15.018-3.976 3.984-9.385 6.212-15.018 6.188z" />
<glyph unicode="&#xe931;" glyph-name="login" d="M715.997 268.001c0-22.091-17.909-40-40-40s-40 17.909-40 40c0 22.091 17.909 40 40 40s40-17.909 40-40zM475.998 16.002h-315.999c-44.112 0-80 35.888-80 80v327.999c0 44.112 35.888 80 80 80h575.998c44.112 0 80-35.888 80-80v-80c0-22.092 17.908-40 40-40s40 17.908 40 40v80c0 88.224-71.776 159.999-159.999 159.999h-48.074v141.067c0 129.541-107.664 234.931-239.999 234.931s-239.999-105.39-239.999-234.931v-141.067h-47.926c-88.224 0-159.999-71.776-159.999-159.999v-327.999c0-88.224 71.776-159.999 159.999-159.999h315.999c22.092 0 40 17.908 40 40s-17.908 40-40 40zM287.925 725.067c0 85.43 71.776 154.931 159.999 154.931s159.999-69.502 159.999-154.931v-141.067h-319.999v141.067zM1007.282 308.525c-17.964 12.862-42.954 8.724-55.808-9.24l-197.161-275.399c-5.384-6.244-12.132-7.592-15.748-7.832-3.708-0.246-10.848 0.224-17.134 6.122l-127.416 124.342c-15.812 15.432-41.136 15.118-56.564-0.69-15.43-15.81-15.122-41.134 0.69-56.564l127.64-124.562c0.12-0.116 0.238-0.232 0.36-0.346 19.134-18.218 44.676-28.352 70.956-28.352 2.258 0 4.522 0.074 6.786 0.226 28.628 1.908 55.358 15.83 73.332 38.194 0.464 0.58 0.912 1.17 1.346 1.774l197.961 276.519c12.858 17.962 8.722 42.95-9.24 55.808zM563.998 268.001c0-22.091-17.909-40-40-40s-40 17.909-40 40c0 22.091 17.909 40 40 40s40-17.909 40-40zM263.999 268.001c0-22.091-17.909-40-40-40s-40 17.909-40 40c0 22.091 17.909 40 40 40s40-17.909 40-40zM413.998 268.001c0-22.091-17.909-40-40-40s-40 17.909-40 40c0 22.091 17.909 40 40 40s40-17.909 40-40z" />
<glyph unicode="&#xe932;" glyph-name="align-left1" d="M725.333 554.667h-597.333c-23.552 0-42.667-19.115-42.667-42.667s19.115-42.667 42.667-42.667h597.333c23.552 0 42.667 19.115 42.667 42.667s-19.115 42.667-42.667 42.667zM896 725.334h-768c-23.552 0-42.667-19.115-42.667-42.667s19.115-42.667 42.667-42.667h768c23.552 0 42.667 19.115 42.667 42.667s-19.115 42.667-42.667 42.667zM896 384h-768c-23.552 0-42.667-19.115-42.667-42.667s19.115-42.667 42.667-42.667h768c23.552 0 42.667 19.115 42.667 42.667s-19.115 42.667-42.667 42.667zM725.333 213.334h-597.333c-23.552 0-42.667-19.115-42.667-42.667s19.115-42.667 42.667-42.667h597.333c23.552 0 42.667 19.115 42.667 42.667s-19.115 42.667-42.667 42.667z" />
<glyph unicode="&#xe933;" glyph-name="align-right1" d="M896 554.667h-597.333c-23.552 0-42.667-19.115-42.667-42.667s19.115-42.667 42.667-42.667h597.333c23.552 0 42.667 19.115 42.667 42.667s-19.115 42.667-42.667 42.667zM896 725.334h-768c-23.552 0-42.667-19.115-42.667-42.667s19.115-42.667 42.667-42.667h768c23.552 0 42.667 19.115 42.667 42.667s-19.115 42.667-42.667 42.667zM896 384h-768c-23.552 0-42.667-19.115-42.667-42.667s19.115-42.667 42.667-42.667h768c23.552 0 42.667 19.115 42.667 42.667s-19.115 42.667-42.667 42.667zM896 213.334h-597.333c-23.552 0-42.667-19.115-42.667-42.667s19.115-42.667 42.667-42.667h597.333c23.552 0 42.667 19.115 42.667 42.667s-19.115 42.667-42.667 42.667z" />
<glyph unicode="&#xe934;" glyph-name="clearclose" d="M810 664.667l-238-238 238-238-60-60-238 238-238-238-60 60 238 238-238 238 60 60 238-238 238 238z" />
<glyph unicode="&#xe935;" glyph-name="done" d="M384 246.667l452 454 60-60-512-512-238 238 58 60z" />
<glyph unicode="&#xe936;" glyph-name="check" d="M384 248.667l452 452 60-60-512-512-238 238 60 60z" />
<glyph unicode="&#xe937;" glyph-name="arrow-thin-right" d="M828.006 512l-310.835 310.835 72.397 72.397 434.432-434.432-434.432-434.432-72.397 72.397 310.835 310.835h-828.006v102.4z" />
<glyph unicode="&#xe938;" glyph-name="eye" d="M1020.208 460.118c-8.064 11.734-201.859 286.554-508.21 286.554-262.874 0-497.118-273.242-506.974-284.89-6.698-7.936-6.698-19.584 0-27.562 9.856-11.648 244.1-284.89 506.974-284.89s497.116 273.242 506.972 284.89c6.188 7.338 6.742 17.962 1.238 25.898zM511.998 191.996c-210.733 0-411.1 200.963-462.001 256.004 50.817 55.083 250.97 256.004 462.001 256.004 246.574 0 420.615-200.665 463.111-254.852-49.069-53.291-250.586-257.156-463.111-257.156zM511.998 618.671c-94.123 0-170.669-76.545-170.669-170.669s76.545-170.669 170.669-170.669 170.669 76.545 170.669 170.669-76.545 170.669-170.669 170.669zM511.998 319.998c-70.571 0-128.002 57.431-128.002 128.002s57.431 128.002 128.002 128.002 128.002-57.431 128.002-128.002-57.431-128.002-128.002-128.002z" />
<glyph unicode="&#xe971;" glyph-name="user" d="M874.040 298.040c-55.766 55.764-122.142 97.046-194.562 122.036 77.564 53.422 128.522 142.828 128.522 243.924 0 163.214-132.786 296-296 296s-296-132.786-296-296c0-101.096 50.958-190.502 128.524-243.924-72.42-24.99-138.796-66.272-194.562-122.036-96.704-96.706-149.962-225.28-149.962-362.040h80c0 238.206 193.794 432 432 432s432-193.794 432-432h80c0 136.76-53.258 265.334-149.96 362.040zM512 448c-119.102 0-216 96.896-216 216s96.898 216 216 216c119.102 0 216-96.896 216-216s-96.898-216-216-216z" />
</font>
</defs>
</svg>
